<?xml version="1.0" encoding="utf-8"?>
<!-- Generator: Adobe Illustrator 20.1.0, SVG Export Plug-In . SVG Version: 6.00 Build 0)  -->
<svg version="1.1" id="Слой_1" xmlns="http://www.w3.org/2000/svg" xmlns:xlink="http://www.w3.org/1999/xlink" x="0px" y="0px"
	 viewBox="0 0 170 171" style="enable-background:new 0 0 170 171;" xml:space="preserve">
<style type="text/css">
	.st0{fill:#EFE7E3;}
	.st1{fill:#0059AA;}
	.st2{fill:#3D485F;}
	.st3{fill:#F4C944;}
</style>
<rect y="0" class="st0" width="170" height="171"/>
<g>
	<g>
		<path class="st1" d="M131.1,150.8c-10.2,0-18.5-8.2-18.5-18.3s8.3-18.3,18.5-18.3s18.5,8.2,18.5,18.3S141.3,150.8,131.1,150.8z
			 M131.1,115.4c-9.5,0-17.2,7.6-17.2,17s7.7,17,17.2,17s17.2-7.6,17.2-17C148.4,123.1,140.6,115.4,131.1,115.4z"/>
		<path class="st1" d="M128.8,138.9c-0.2,0-0.3-0.1-0.4-0.2c-0.2-0.2-0.2-0.6,0-0.9l5.7-5.6l-5.7-5.6c-0.2-0.2-0.2-0.6,0-0.9
			c0.2-0.2,0.6-0.2,0.9,0l6.1,6.1c0.2,0.2,0.2,0.6,0,0.9l-6.1,6.1C129.1,138.8,129,138.9,128.8,138.9z"/>
	</g>
</g>
<path class="st2" d="M70.7,147.7c0,1.8-1.4,3.2-3.2,3.2H28.2c-1.8,0-3.2-1.4-3.2-3.2v-39.2c0-1.8,1.4-3.2,3.2-3.2h39.2
	c1.8,0,3.2,1.4,3.2,3.2L70.7,147.7L70.7,147.7z"/>
<g id="ємблема">
	<g>
		<path class="st3" d="M32.6,147.3c0-0.1-0.7-0.4-0.7-0.6c0-0.2,0.5-0.2,0.5-0.3c-0.2-0.2-0.9-0.3-0.9-0.3c-0.1-0.1,0.1-0.5,0.1-0.7
			c-0.1-0.3-0.6-0.3-0.6-0.3c0,0.2,0,0.4-0.2,0.5c-0.3,0.1-0.6-0.5-0.9-0.6c-0.4-0.2-1.7-0.4-1.3-0.2c0,0,0.3,0.1,0.3,0.2l-0.4,0.3
			c-0.2,0.1,0.7,0,0.9,0.1c0.3,0.1,0.4,0.6-0.1,0.7c-0.2,0-0.5-0.4-0.5-0.4l-0.1,0.4c-0.1,0.3,0.6,0.7,0.7,1c0,0.1,0,0.2,0,0.2
			c0,0.1-0.2,0.3-0.1,0.4c0,0,0.1-0.1,0.2-0.2c0-0.1,0.1,0,0.1,0c0.1-0.1,0-0.2,0-0.3s0.1-0.2,0.2-0.2s0,0.4,0,0.4l0.1,0.4
			c0,0.1,0.1-0.2,0.3-0.3c0,0,0.3,0.7,0.4,0.7c0.2,0,0.1-0.4,0.2-0.3c0.4,0.4,1.4,0.3,1.9,0.4c0,0-0.5-0.4-0.3-0.6
			C32.2,147.3,32.6,147.4,32.6,147.3z M30.4,145.3c0,0,0.2,0.1,0.3,0c0.1-0.1,0-0.3,0-0.3C30.7,145.2,30.6,145.3,30.4,145.3z
			 M28.7,147.3c-0.1,0-0.1,0-0.1,0.1s0,0.1,0.1,0.1s0.1,0,0.1-0.1C28.8,147.3,28.8,147.3,28.7,147.3z M28.4,147.2
			c-0.1,0-0.1,0-0.1,0.1s0,0.1,0.1,0.1s0.1,0,0.1-0.1L28.4,147.2z M28,147.2c-0.1,0-0.1,0-0.1,0.1s0,0.1,0.1,0.1s0.1,0,0.1-0.1
			C28.2,147.3,28.1,147.2,28,147.2z M28.9,146.9c-0.1,0-0.1,0-0.1,0.1s0,0.1,0.1,0.1s0.1,0,0.1-0.1L28.9,146.9z M28.7,147
			c0-0.1,0-0.1-0.1-0.1s-0.1,0-0.1,0.1s0,0.1,0.1,0.1C28.6,147.1,28.7,147.1,28.7,147z M28.3,147c0-0.1,0-0.1-0.1-0.1
			s-0.1,0-0.1,0.1s0,0.1,0.1,0.1S28.3,147.1,28.3,147z M28.8,146.7c0-0.1,0-0.1-0.1-0.1s-0.1,0-0.1,0.1s0,0.1,0.1,0.1
			C28.7,146.8,28.8,146.8,28.8,146.7z M28.3,146.6c-0.1,0-0.1,0-0.1,0.1s0,0.1,0.1,0.1s0.1,0,0.1-0.1S28.3,146.6,28.3,146.6z
			 M28.6,146.4c0-0.1,0-0.1-0.1-0.1s-0.1,0-0.1,0.1s0,0.1,0.1,0.1C28.5,146.5,28.6,146.5,28.6,146.4z M40.4,147.3
			c0-0.1-0.7-0.4-0.7-0.6c0-0.2,0.5-0.2,0.5-0.3c-0.2-0.2-0.9-0.3-0.9-0.3c-0.1-0.1,0.1-0.5,0.1-0.7c-0.1-0.3-0.6-0.4-0.6-0.4
			c0,0.2,0,0.4-0.2,0.5c-0.3,0.1-0.6-0.5-0.9-0.6c-0.4-0.2-1.7-0.4-1.3-0.2l0,0c0,0,0.3,0.1,0.3,0.2l-0.4,0.3
			c-0.2,0.1,0.7,0,0.9,0.1c0.3,0.1,0.4,0.6-0.1,0.7c-0.2,0-0.5-0.4-0.5-0.4l-0.1,0.4c-0.1,0.3,0.6,0.7,0.7,1c0,0.1,0,0.2,0,0.2
			c0,0.1-0.2,0.3-0.1,0.4c0,0,0.1-0.1,0.2-0.2c0-0.1,0.1,0,0.1,0c0.1-0.1,0-0.2,0-0.3s0.1-0.2,0.2-0.2c0.1,0,0,0.4,0,0.4l0.1,0.4
			c0,0.1,0.1-0.2,0.3-0.3c0,0,0.3,0.7,0.4,0.7c0.2,0,0.1-0.4,0.2-0.3c0.4,0.4,1.4,0.3,1.9,0.4c0,0-0.5-0.4-0.3-0.6
			C40,147.2,40.4,147.3,40.4,147.3z M36.4,147.3c0,0.1,0,0.1,0.1,0.1s0.1,0,0.1-0.1s0-0.1-0.1-0.1S36.4,147.2,36.4,147.3z
			 M36.1,147.4c0.1,0,0.1,0,0.1-0.1s0-0.1-0.1-0.1s-0.1,0-0.1,0.1C36,147.3,36.1,147.4,36.1,147.4z M35.8,147.2
			c-0.1,0-0.1,0-0.1,0.1s0,0.1,0.1,0.1s0.1,0,0.1-0.1C35.9,147.2,35.9,147.2,35.8,147.2z M36.7,146.9c-0.1,0-0.1,0-0.1,0.1
			s0,0.1,0.1,0.1s0.1,0,0.1-0.1S36.7,146.9,36.7,146.9z M36.2,146.9c0,0.1,0,0.1,0.1,0.1s0.1,0,0.1-0.1s0-0.1-0.1-0.1
			C36.3,146.8,36.2,146.9,36.2,146.9z M36.1,147c0-0.1,0-0.1-0.1-0.1s-0.1,0-0.1,0.1s0,0.1,0.1,0.1S36.1,147,36.1,147z M36.5,146.6
			c-0.1,0-0.1,0-0.1,0.1s0,0.1,0.1,0.1s0.1,0,0.1-0.1S36.5,146.6,36.5,146.6z M36.2,146.6c0-0.1,0-0.1-0.1-0.1s-0.1,0-0.1,0.1
			s0,0.1,0.1,0.1C36.1,146.7,36.2,146.7,36.2,146.6z M36.2,146.2c-0.1,0-0.1,0-0.1,0.1s0,0.1,0.1,0.1s0.1,0,0.1-0.1
			C36.3,146.3,36.3,146.2,36.2,146.2z M38.5,145.3c0.1-0.1,0-0.3,0-0.3c-0.1,0.1-0.1,0.2-0.3,0.3C38.2,145.3,38.4,145.3,38.5,145.3z
			 M35.6,147.4l-0.1-0.3c0,0,0.2-0.3,0.3-0.5s0.3-0.4,0.2-0.7c0,0-0.1-0.2-0.1-0.3s0.1-0.3,0.1-0.2c0,0-0.3,0.3-0.5,0.2
			c-0.1,0-0.1-0.3-0.3-0.2c0,0-0.1,0.3-0.3,0.3c-0.1-0.3,0-0.4,0.1-0.6c0.1,0.1,0.1,0.1,0.2,0.1c0.1,0,0.1-0.1,0.1-0.2
			c0-0.1-0.1-0.2-0.2-0.2c-0.1,0-0.2,0.1-0.3,0.2c0,0-0.2,0.4-0.3,0.4c-0.1-0.3-0.2-0.6-0.5-0.8c-0.1-0.1-0.3,0-0.4-0.1
			c-0.4-0.2-0.6-0.1-0.9-0.2H32c-0.1,0,0.2,0.1,0.2,0.2c0,0.1-0.2,0.1-0.2,0.1l-0.6,0.1c-0.1,0,0.5,0.4,0.5,0.6
			c0,0.1-0.1,0.2-0.1,0.2s0.4,0.4,0.6,0.4c0.1,0,0.4,0,0.4,0l0.1-0.1c0.1,0,0.4,0.3,0.5,0.2l0.5-0.2l-0.1,0.3
			c-0.1,0-0.1,0.1-0.1,0.2c0,0.1,0.1,0.2,0.2,0.2c0.1,0,0.2-0.1,0.2-0.2c0-0.1,0-0.1-0.1-0.2c0.4-0.2,0.7-0.1,0.7-0.1l0.2,0.3
			c0.1,0.2-0.3-0.1-0.5,0c-0.1,0-0.1,0.3-0.3,0.3c0,0-0.3,0-0.4,0.1c-0.3,0.2-0.3,1-0.2,0.9c0,0,0.1-0.2,0.2-0.2
			c0.1-0.1,0.4,0.1,0.4,0c0,0,0.1-0.2,0.2-0.2c0.1-0.1,0.4,0,0.4,0s0.1-0.1,0.2-0.2c0.1,0,0.3,0,0.3,0.1c0.1,0.4,0.4,0.8,0.6,0.8
			c0.2,0,0.4-0.2,0.4-0.2l0.3-0.2C36.3,147.7,35.7,147.7,35.6,147.4z M35,147.3c-0.1,0-0.2,0.1-0.2,0.2c0,0.1,0.1,0.2,0.2,0.2
			c0.1,0,0.2-0.1,0.2-0.2C35.2,147.4,35.1,147.3,35,147.3z M34.5,145L34.5,145c0,0.1,0.1,0.2,0.2,0.2c0.1,0,0.2-0.1,0.2-0.2
			c0-0.1-0.1-0.2-0.2-0.2C34.5,144.9,34.5,144.9,34.5,145z M48.4,147.3c0-0.1-0.7-0.4-0.7-0.6c0-0.2,0.5-0.2,0.5-0.3
			c-0.2-0.2-0.9-0.3-0.9-0.3c-0.1-0.1,0.1-0.5,0.1-0.7c-0.1-0.3-0.6-0.4-0.6-0.4c0,0.2,0,0.4-0.2,0.5c-0.3,0.1-0.6-0.5-0.9-0.6
			c-0.4-0.2-1.7-0.4-1.3-0.2l0,0c0,0,0.3,0.1,0.3,0.2l-0.4,0.3c-0.2,0.1,0.7,0,0.9,0.1c0.3,0.1,0.4,0.6-0.1,0.7
			c-0.2,0-0.5-0.4-0.5-0.4l-0.1,0.4c-0.1,0.3,0.6,0.7,0.7,1c0,0.1,0,0.2,0,0.2c0,0.1-0.2,0.3-0.1,0.4c0,0,0.1-0.1,0.2-0.2
			c0-0.1,0.1,0,0.1,0c0.1-0.1,0-0.2,0-0.3s0.1-0.2,0.2-0.2c0.1,0,0,0.4,0,0.4l0.1,0.4c0,0.1,0.1-0.2,0.3-0.3c0,0,0.3,0.7,0.4,0.7
			c0.2,0,0.1-0.4,0.2-0.3c0.4,0.4,1.4,0.3,1.9,0.4c0,0-0.5-0.4-0.3-0.6C48,147.2,48.4,147.3,48.4,147.3z M44.4,147.3
			c0,0.1,0,0.1,0.1,0.1s0.1,0,0.1-0.1s0-0.1-0.1-0.1S44.4,147.2,44.4,147.3z M44.1,147.4c0.1,0,0.1,0,0.1-0.1s0-0.1-0.1-0.1
			s-0.1,0-0.1,0.1C44,147.3,44.1,147.4,44.1,147.4z M43.8,147.2c-0.1,0-0.1,0-0.1,0.1s0,0.1,0.1,0.1s0.1,0,0.1-0.1
			C43.9,147.2,43.9,147.2,43.8,147.2z M44.7,146.9c-0.1,0-0.1,0-0.1,0.1s0,0.1,0.1,0.1s0.1,0,0.1-0.1S44.7,146.9,44.7,146.9z
			 M44.2,146.9c0,0.1,0,0.1,0.1,0.1s0.1,0,0.1-0.1s0-0.1-0.1-0.1S44.2,146.9,44.2,146.9z M44.1,147c0-0.1,0-0.1-0.1-0.1
			s-0.1,0-0.1,0.1s0,0.1,0.1,0.1L44.1,147z M44.5,146.6c-0.1,0-0.1,0-0.1,0.1s0,0.1,0.1,0.1s0.1,0,0.1-0.1S44.5,146.6,44.5,146.6z
			 M44.2,146.6c0-0.1,0-0.1-0.1-0.1s-0.1,0-0.1,0.1s0,0.1,0.1,0.1S44.2,146.7,44.2,146.6z M44.2,146.2c-0.1,0-0.1,0-0.1,0.1
			s0,0.1,0.1,0.1s0.1,0,0.1-0.1C44.3,146.3,44.3,146.2,44.2,146.2z M46.2,145.3c0,0,0.2,0.1,0.3,0s0-0.3,0-0.3
			C46.5,145.1,46.4,145.2,46.2,145.3z M43.6,147.4l-0.1-0.3c0,0,0.2-0.3,0.3-0.5s0.3-0.4,0.2-0.7c0,0-0.1-0.2-0.1-0.3
			s0.1-0.3,0.1-0.2c0,0-0.3,0.3-0.5,0.2c-0.1,0-0.1-0.3-0.3-0.2c0,0-0.1,0.3-0.3,0.3c-0.1-0.3,0-0.4,0.1-0.6
			c0.1,0.1,0.1,0.1,0.2,0.1c0.1,0,0.1-0.1,0.1-0.2c0-0.1-0.1-0.2-0.2-0.2c-0.1,0-0.2,0.1-0.3,0.2c0,0-0.2,0.4-0.3,0.4
			c-0.1-0.3-0.2-0.6-0.5-0.8c-0.1-0.1-0.3,0-0.4-0.1c-0.4-0.2-0.6-0.1-0.9-0.2H40c-0.1,0,0.2,0.1,0.2,0.2c0,0.1-0.2,0.1-0.2,0.1
			l-0.6,0.1c-0.1,0,0.5,0.4,0.5,0.6c0,0.1-0.1,0.2-0.1,0.2s0.4,0.4,0.6,0.4c0.1,0,0.4,0,0.4,0l0.1-0.1c0.1,0,0.4,0.3,0.5,0.2
			l0.5-0.2l-0.1,0.3c-0.1,0-0.1,0.1-0.1,0.2c0,0.1,0.1,0.2,0.2,0.2c0.1,0,0.2-0.1,0.2-0.2c0-0.1,0-0.1-0.1-0.2
			c0.4-0.2,0.7-0.1,0.7-0.1l0.2,0.3c0.1,0.2-0.3-0.1-0.5,0c-0.1,0-0.1,0.3-0.3,0.3c0,0-0.3,0-0.4,0.1c-0.3,0.2-0.3,1-0.2,0.9
			c0,0,0.1-0.2,0.2-0.2c0.1-0.1,0.4,0.1,0.4,0c0,0,0.1-0.2,0.2-0.2c0.1-0.1,0.4,0,0.4,0s0.1-0.1,0.2-0.2c0.1,0,0.3,0,0.3,0.1
			c0.1,0.4,0.4,0.8,0.6,0.8c0.2,0,0.4-0.2,0.4-0.2l0.3-0.2C44.3,147.7,43.7,147.7,43.6,147.4z M43,147.3c-0.1,0-0.2,0.1-0.2,0.2
			c0,0.1,0.1,0.2,0.2,0.2c0.1,0,0.2-0.1,0.2-0.2C43.2,147.4,43.1,147.3,43,147.3z M42.4,145L42.4,145c0,0.1,0.1,0.2,0.2,0.2
			c0.1,0,0.2-0.1,0.2-0.2c0-0.1-0.1-0.2-0.2-0.2C42.5,144.9,42.4,144.9,42.4,145z M56.4,147.3c0-0.1-0.7-0.4-0.7-0.6
			c0-0.2,0.5-0.2,0.5-0.3c-0.2-0.2-0.9-0.3-0.9-0.3c-0.1-0.1,0.1-0.5,0.1-0.7c-0.1-0.3-0.6-0.4-0.6-0.4c0,0.2,0,0.4-0.2,0.5
			c-0.3,0.1-0.6-0.5-0.9-0.6c-0.4-0.2-1.7-0.4-1.3-0.2l0,0c0,0,0.3,0.1,0.3,0.2l-0.4,0.3c-0.2,0.1,0.7,0,0.9,0.1
			c0.3,0.1,0.4,0.6-0.1,0.7c-0.2,0-0.5-0.4-0.5-0.4l-0.1,0.4c-0.1,0.3,0.6,0.7,0.7,1c0,0.1,0,0.2,0,0.2c0,0.1-0.2,0.3-0.1,0.4
			c0,0,0.1-0.1,0.2-0.2c0-0.1,0.1,0,0.1,0c0.1-0.1,0-0.2,0-0.3s0.1-0.2,0.2-0.2c0.1,0,0,0.4,0,0.4l0.1,0.4c0,0.1,0.1-0.2,0.3-0.3
			c0,0,0.3,0.7,0.4,0.7c0.2,0,0.1-0.4,0.2-0.3c0.4,0.4,1.4,0.3,1.9,0.4c0,0-0.5-0.4-0.3-0.6C56,147.2,56.4,147.3,56.4,147.3z
			 M52.4,147.3c0,0.1,0,0.1,0.1,0.1s0.1,0,0.1-0.1s0-0.1-0.1-0.1S52.4,147.2,52.4,147.3z M52.1,147.4c0.1,0,0.1,0,0.1-0.1
			s0-0.1-0.1-0.1s-0.1,0-0.1,0.1C52,147.3,52.1,147.4,52.1,147.4z M51.8,147.2c-0.1,0-0.1,0-0.1,0.1s0,0.1,0.1,0.1s0.1,0,0.1-0.1
			C51.9,147.2,51.9,147.2,51.8,147.2z M52.7,146.9c-0.1,0-0.1,0-0.1,0.1s0,0.1,0.1,0.1s0.1,0,0.1-0.1S52.7,146.9,52.7,146.9z
			 M52.2,146.9c0,0.1,0,0.1,0.1,0.1s0.1,0,0.1-0.1s0-0.1-0.1-0.1S52.2,146.9,52.2,146.9z M52.1,147c0-0.1,0-0.1-0.1-0.1
			s-0.1,0-0.1,0.1s0,0.1,0.1,0.1S52.1,147,52.1,147z M52.5,146.6c-0.1,0-0.1,0-0.1,0.1s0,0.1,0.1,0.1s0.1,0,0.1-0.1
			S52.5,146.6,52.5,146.6z M52.2,146.6c0-0.1,0-0.1-0.1-0.1s-0.1,0-0.1,0.1s0,0.1,0.1,0.1C52.1,146.7,52.2,146.7,52.2,146.6z
			 M52.2,146.2c-0.1,0-0.1,0-0.1,0.1s0,0.1,0.1,0.1s0.1,0,0.1-0.1C52.4,146.3,52.3,146.2,52.2,146.2z M54.2,145.3c0,0,0.2,0.1,0.3,0
			s0-0.3,0-0.3C54.5,145.1,54.4,145.2,54.2,145.3z M51.6,147.4l-0.1-0.3c0,0,0.2-0.3,0.3-0.5s0.3-0.4,0.2-0.7c0,0-0.1-0.2-0.1-0.3
			s0.1-0.3,0.1-0.2c0,0-0.3,0.3-0.5,0.2c-0.1,0-0.1-0.3-0.3-0.2c0,0-0.1,0.3-0.3,0.3c-0.1-0.3,0-0.4,0.1-0.6
			c0.1,0.1,0.1,0.1,0.2,0.1c0.1,0,0.1-0.1,0.1-0.2c0-0.1-0.1-0.2-0.2-0.2c-0.1,0-0.2,0.1-0.3,0.2c0,0-0.2,0.4-0.3,0.4
			c-0.1-0.3-0.2-0.6-0.5-0.8c-0.1-0.1-0.3,0-0.4-0.1c-0.4-0.2-0.6-0.1-0.9-0.2H48c-0.1,0,0.2,0.1,0.2,0.2c0,0.1-0.2,0.1-0.2,0.1
			l-0.6,0.1c-0.1,0,0.5,0.4,0.5,0.6c0,0.1-0.1,0.2-0.1,0.2s0.4,0.4,0.6,0.4c0.1,0,0.4,0,0.4,0l0.1-0.1c0.1,0,0.4,0.3,0.5,0.2
			l0.5-0.2l-0.1,0.3c-0.1,0-0.1,0.1-0.1,0.2c0,0.1,0.1,0.2,0.2,0.2c0.1,0,0.2-0.1,0.2-0.2c0-0.1,0-0.1-0.1-0.2
			c0.4-0.2,0.7-0.1,0.7-0.1l0.2,0.3c0.1,0.2-0.3-0.1-0.5,0c-0.1,0-0.1,0.3-0.3,0.3c0,0-0.3,0-0.4,0.1c-0.3,0.2-0.3,1-0.2,0.9
			c0,0,0.1-0.2,0.2-0.2c0.1-0.1,0.4,0.1,0.4,0c0,0,0.1-0.2,0.2-0.2c0.1-0.1,0.4,0,0.4,0s0.1-0.1,0.2-0.2c0.1,0,0.3,0,0.3,0.1
			c0.1,0.4,0.4,0.8,0.6,0.8c0.2,0,0.4-0.2,0.4-0.2l0.3-0.2C52.3,147.7,51.7,147.7,51.6,147.4z M51,147.3c-0.1,0-0.2,0.1-0.2,0.2
			c0,0.1,0.1,0.2,0.2,0.2c0.1,0,0.2-0.1,0.2-0.2C51.2,147.4,51.1,147.3,51,147.3z M50.5,145L50.5,145c0,0.1,0.1,0.2,0.2,0.2
			c0.1,0,0.2-0.1,0.2-0.2c0-0.1-0.1-0.2-0.2-0.2C50.5,144.9,50.5,144.9,50.5,145z M64.3,147.3c0-0.1-0.7-0.4-0.7-0.6
			c0-0.2,0.5-0.2,0.5-0.3c-0.2-0.2-0.9-0.3-0.9-0.3c-0.1-0.1,0.1-0.5,0.1-0.7c-0.1-0.3-0.6-0.4-0.6-0.4c0,0.2,0,0.4-0.2,0.5
			c-0.3,0.1-0.6-0.5-0.9-0.6c-0.4-0.2-1.7-0.4-1.3-0.2l0,0c0,0,0.3,0.1,0.3,0.2l-0.4,0.3c-0.2,0.1,0.7,0,0.9,0.1
			c0.3,0.1,0.4,0.6-0.1,0.7c-0.2,0-0.5-0.4-0.5-0.4l-0.1,0.4c-0.1,0.3,0.6,0.7,0.7,1c0,0.1,0,0.2,0,0.2c0,0.1-0.2,0.3-0.1,0.4
			c0,0,0.1-0.1,0.2-0.2c0-0.1,0.1,0,0.1,0c0.1-0.1,0-0.2,0-0.3s0.1-0.2,0.2-0.2c0.1,0,0,0.4,0,0.4l0.1,0.4c0,0.1,0.1-0.2,0.3-0.3
			c0,0,0.3,0.7,0.4,0.7c0.2,0,0.1-0.4,0.2-0.3c0.4,0.4,1.4,0.3,1.9,0.4c0,0-0.5-0.4-0.3-0.6C63.8,147.2,64.2,147.3,64.3,147.3z
			 M60.3,147.3c0,0.1,0,0.1,0.1,0.1s0.1,0,0.1-0.1s0-0.1-0.1-0.1S60.3,147.2,60.3,147.3z M60,147.4c0.1,0,0.1,0,0.1-0.1
			s0-0.1-0.1-0.1s-0.1,0-0.1,0.1C59.9,147.3,59.9,147.4,60,147.4z M59.7,147.2c-0.1,0-0.1,0-0.1,0.1s0,0.1,0.1,0.1s0.1,0,0.1-0.1
			S59.7,147.2,59.7,147.2z M60.5,146.9c-0.1,0-0.1,0-0.1,0.1s0,0.1,0.1,0.1s0.1,0,0.1-0.1S60.6,146.9,60.5,146.9z M60.1,146.9
			c0,0.1,0,0.1,0.1,0.1s0.1,0,0.1-0.1s0-0.1-0.1-0.1C60.1,146.8,60.1,146.9,60.1,146.9z M60,147c0-0.1,0-0.1-0.1-0.1s-0.1,0-0.1,0.1
			s0,0.1,0.1,0.1L60,147z M60.3,146.6c-0.1,0-0.1,0-0.1,0.1s0,0.1,0.1,0.1s0.1,0,0.1-0.1C60.4,146.6,60.4,146.6,60.3,146.6z
			 M60,146.6c0-0.1,0-0.1-0.1-0.1s-0.1,0-0.1,0.1s0,0.1,0.1,0.1C60,146.7,60,146.7,60,146.6z M60.1,146.2c-0.1,0-0.1,0-0.1,0.1
			s0,0.1,0.1,0.1s0.1,0,0.1-0.1C60.2,146.3,60.2,146.2,60.1,146.2z M62.3,145.3c0.1-0.1,0-0.3,0-0.3c0,0.1-0.1,0.2-0.3,0.3
			C62.1,145.3,62.3,145.3,62.3,145.3z M58.9,147.3c-0.1,0-0.2,0.1-0.2,0.2c0,0.1,0.1,0.2,0.2,0.2c0.1,0,0.2-0.1,0.2-0.2
			C59,147.4,59,147.3,58.9,147.3z M59.4,147.4l-0.1-0.3c0,0,0.2-0.3,0.3-0.5s0.3-0.4,0.2-0.7c0,0-0.1-0.2-0.1-0.3s0.1-0.3,0.1-0.2
			c0,0-0.3,0.3-0.5,0.2c-0.1,0-0.1-0.3-0.3-0.2c0,0-0.1,0.3-0.3,0.3c-0.1-0.3,0-0.4,0.1-0.6c0.1,0.1,0.1,0.1,0.2,0.1
			c0.1,0,0.1-0.1,0.1-0.2c0-0.1-0.1-0.2-0.2-0.2c-0.1,0-0.2,0.1-0.3,0.2c0,0-0.2,0.4-0.3,0.4c-0.1-0.3-0.2-0.6-0.5-0.8
			c-0.1-0.1-0.3,0-0.4-0.1c-0.4-0.2-0.6-0.1-0.9-0.2h-0.7c-0.1,0,0.2,0.1,0.2,0.2c0,0.1-0.2,0.1-0.2,0.1l-0.6,0.1
			c-0.1,0,0.5,0.4,0.5,0.6c0,0.1-0.1,0.2-0.1,0.2s0.4,0.4,0.6,0.4c0.1,0,0.4,0,0.4,0l0.1-0.1c0.1,0,0.4,0.3,0.5,0.2l0.5-0.2
			l-0.1,0.3c-0.1,0-0.1,0.1-0.1,0.2c0,0.1,0.1,0.2,0.2,0.2c0.1,0,0.2-0.1,0.2-0.2c0-0.1,0-0.1-0.1-0.2c0.4-0.2,0.7-0.1,0.7-0.1
			l0.2,0.3c0.1,0.2-0.3-0.1-0.5,0c-0.1,0-0.1,0.3-0.3,0.3c0,0-0.3,0-0.4,0.1c-0.3,0.2-0.3,1-0.2,0.9c0,0,0.1-0.2,0.2-0.2
			c0.1-0.1,0.4,0.1,0.4,0c0,0,0.1-0.2,0.2-0.2c0.1-0.1,0.4,0,0.4,0s0.1-0.1,0.2-0.2c0.1,0,0.3,0,0.3,0.1c0.1,0.4,0.4,0.8,0.6,0.8
			c0.2,0,0.4-0.2,0.4-0.2l0.3-0.2C60.2,147.7,59.5,147.7,59.4,147.4z M58.3,145L58.3,145c0,0.1,0.1,0.2,0.2,0.2
			c0.1,0,0.2-0.1,0.2-0.2c0-0.1-0.1-0.2-0.2-0.2C58.4,144.9,58.3,144.9,58.3,145z M32.4,109.5c-0.2,0-0.5-0.4-0.5-0.4l-0.1,0.4
			c-0.1,0.3,0.6,0.7,0.7,1c0,0.1,0,0.2,0,0.2c0,0.1-0.2,0.3-0.1,0.4c0,0,0.1-0.1,0.2-0.2c0-0.1,0.1,0,0.1,0c0.1-0.1,0-0.2,0-0.3
			c0-0.1,0.1-0.2,0.2-0.2c0.1,0,0,0.4,0,0.4l0.1,0.4c0,0.1,0.1-0.2,0.3-0.3c0,0,0.3,0.7,0.4,0.7c0.2,0,0.1-0.4,0.2-0.3
			c0.4,0.4,1.4,0.3,1.9,0.4c0,0-0.5-0.4-0.3-0.6c0.1-0.2,0.5-0.1,0.5-0.2s-0.7-0.4-0.7-0.6s0.5-0.2,0.5-0.3
			c-0.2-0.2-0.9-0.3-0.9-0.3c-0.1-0.1,0.1-0.5,0.1-0.7c-0.1-0.3-0.6-0.4-0.6-0.4c0,0.2,0,0.4-0.2,0.5c-0.3,0.1-0.6-0.5-0.9-0.6
			c-0.4-0.2-1.7-0.4-1.3-0.2c0,0,0.3,0.1,0.3,0.2l-0.4,0.3c-0.2,0.1,0.7,0,0.9,0.1C32.7,108.9,32.9,109.5,32.4,109.5z M33.9,108.8
			c0.1-0.1,0-0.3,0-0.3c-0.1,0.1-0.1,0.2-0.3,0.3C33.6,108.8,33.8,108.9,33.9,108.8z M31.9,111c0.1,0,0.1,0,0.1-0.1s0-0.1-0.1-0.1
			s-0.1,0-0.1,0.1S31.8,111,31.9,111z M31.6,110.8c0-0.1,0-0.1-0.1-0.1s-0.1,0-0.1,0.1s0,0.1,0.1,0.1S31.6,110.9,31.6,110.8z
			 M31.1,110.8c0,0.1,0,0.1,0.1,0.1s0.1,0,0.1-0.1s0-0.1-0.1-0.1C31.1,110.7,31.1,110.8,31.1,110.8z M32.1,110.5
			c0-0.1,0-0.1-0.1-0.1s-0.1,0-0.1,0.1s0,0.1,0.1,0.1S32.1,110.6,32.1,110.5z M31.7,110.6c0.1,0,0.1,0,0.1-0.1s0-0.1-0.1-0.1
			s-0.1,0-0.1,0.1S31.7,110.6,31.7,110.6z M31.4,110.6c0.1,0,0.1,0,0.1-0.1s0-0.1-0.1-0.1s-0.1,0-0.1,0.1S31.3,110.6,31.4,110.6z
			 M31.9,110.2c0-0.1,0-0.1-0.1-0.1s-0.1,0-0.1,0.1s0,0.1,0.1,0.1C31.9,110.3,31.9,110.3,31.9,110.2z M31.4,110.3
			c0.1,0,0.1,0,0.1-0.1s0-0.1-0.1-0.1s-0.1,0-0.1,0.1S31.4,110.3,31.4,110.3z M31.6,110c0.1,0,0.1,0,0.1-0.1s0-0.1-0.1-0.1
			s-0.1,0-0.1,0.1S31.6,110,31.6,110z M40.2,109.4c-0.2,0-0.5-0.4-0.5-0.4l-0.1,0.4c-0.1,0.3,0.6,0.7,0.7,1c0,0.1,0,0.2,0,0.2
			c0,0.1-0.2,0.3-0.1,0.4c0,0,0.1-0.1,0.2-0.2c0-0.1,0.1,0,0.1,0c0.1-0.1,0-0.2,0-0.3c0-0.1,0.1-0.2,0.2-0.2c0.1,0,0,0.4,0,0.4
			l0.1,0.4c0,0.1,0.1-0.2,0.3-0.3c0,0,0.3,0.7,0.4,0.7c0.2,0,0.1-0.4,0.2-0.3c0.4,0.4,1.4,0.3,1.9,0.4c0,0-0.5-0.4-0.3-0.6
			c0.1-0.2,0.5-0.1,0.5-0.2s-0.7-0.4-0.7-0.6s0.5-0.2,0.5-0.3c-0.2-0.2-0.9-0.3-0.9-0.3c-0.1-0.1,0.1-0.5,0.1-0.7
			c-0.1-0.3-0.6-0.4-0.6-0.4c0,0.2,0,0.4-0.2,0.5c-0.3,0.1-0.6-0.5-0.9-0.6c-0.4-0.2-1.7-0.4-1.3-0.2c0,0,0.3,0.1,0.3,0.2l-0.4,0.3
			c-0.2,0.1,0.7,0,0.9,0.1C40.5,108.8,40.7,109.4,40.2,109.4z M39.7,110.9C39.8,110.9,39.8,110.9,39.7,110.9c0.1-0.2,0.1-0.2,0-0.2
			S39.6,110.7,39.7,110.9C39.6,110.9,39.6,110.9,39.7,110.9z M39.3,110.9C39.4,110.9,39.4,110.9,39.3,110.9c0.1-0.2,0.1-0.2,0-0.2
			S39.2,110.7,39.3,110.9C39.2,110.8,39.2,110.9,39.3,110.9z M39,110.6C38.9,110.6,38.9,110.6,39,110.6c-0.1,0.2-0.1,0.2,0,0.2
			S39.1,110.8,39,110.6L39,110.6z M39.9,110.5C39.9,110.4,39.9,110.4,39.9,110.5c-0.2-0.1-0.2-0.1-0.2,0S39.7,110.6,39.9,110.5
			C39.9,110.6,39.9,110.5,39.9,110.5z M39.5,110.5C39.6,110.5,39.6,110.5,39.5,110.5c0.1-0.2,0.1-0.2,0-0.2S39.4,110.3,39.5,110.5
			C39.4,110.5,39.4,110.5,39.5,110.5z M39.3,110.4C39.3,110.3,39.3,110.3,39.3,110.4c-0.2-0.1-0.2-0.1-0.2,0S39.1,110.5,39.3,110.4
			C39.2,110.5,39.3,110.5,39.3,110.4z M39.7,110.1C39.7,110,39.7,110,39.7,110.1c-0.2-0.1-0.2-0.1-0.2,0S39.5,110.2,39.7,110.1
			C39.7,110.3,39.7,110.2,39.7,110.1z M39.2,110.2C39.3,110.2,39.3,110.2,39.2,110.2c0.1-0.2,0.1-0.2,0-0.2S39.1,110,39.2,110.2
			C39.1,110.2,39.2,110.2,39.2,110.2z M39.4,109.9C39.5,109.9,39.5,109.9,39.4,109.9c0.1-0.2,0.1-0.2,0-0.2S39.3,109.7,39.4,109.9
			C39.3,109.9,39.3,109.9,39.4,109.9z M41.6,108.7c0.1-0.1,0-0.3,0-0.3c-0.1,0.1-0.1,0.2-0.3,0.3C41.4,108.7,41.6,108.8,41.6,108.7z
			 M35.1,109.1c0,0.1-0.1,0.2-0.1,0.2s0.4,0.4,0.6,0.4c0.1,0,0.4,0,0.4,0l0.1-0.1c0.1,0,0.4,0.3,0.5,0.2l0.5-0.2l-0.1,0.3
			c-0.1,0-0.1,0.1-0.1,0.2s0.1,0.2,0.2,0.2c0.1,0,0.2-0.1,0.2-0.2s0-0.1-0.1-0.2c0.4-0.2,0.7-0.1,0.7-0.1l0.2,0.3
			c0.1,0.2-0.3-0.1-0.5,0c-0.1,0-0.1,0.3-0.3,0.3c0,0-0.3,0-0.4,0.1c-0.3,0.2-0.3,1-0.2,0.9c0,0,0.1-0.2,0.2-0.2
			c0.1-0.1,0.4,0.1,0.4,0c0,0,0.1-0.2,0.2-0.2c0.1-0.1,0.4,0,0.4,0s0.1-0.1,0.2-0.2c0.1,0,0.3,0,0.3,0.1c0.1,0.4,0.4,0.8,0.6,0.8
			c0.2,0,0.4-0.2,0.4-0.2l0.3-0.2c-0.4,0-1,0-1.1-0.2l-0.1-0.3c0,0,0.2-0.3,0.3-0.5s0.3-0.4,0.2-0.7c0,0-0.1-0.2-0.1-0.3
			c0-0.1,0.1-0.3,0.1-0.2c0,0-0.3,0.3-0.5,0.2c-0.1,0-0.1-0.3-0.3-0.2c0,0-0.1,0.3-0.3,0.3c-0.1-0.3,0-0.4,0.1-0.6
			c0.1,0.1,0.1,0.1,0.2,0.1c0.1,0,0.1-0.1,0.1-0.2s-0.1-0.2-0.2-0.2c-0.1,0-0.2,0.1-0.3,0.2c0,0-0.2,0.4-0.3,0.4
			c-0.1-0.3-0.2-0.6-0.5-0.8c-0.1-0.1-0.3,0-0.4-0.1c-0.4-0.2-0.6-0.1-0.9-0.2H35c-0.1,0,0.2,0.1,0.2,0.2s-0.2,0.1-0.2,0.1l-0.6,0.1
			C34.5,108.5,35,108.8,35.1,109.1z M38.2,110.8c-0.1,0-0.2,0.1-0.2,0.2s0.1,0.2,0.2,0.2c0.1,0,0.2-0.1,0.2-0.2
			C38.3,110.9,38.3,110.8,38.2,110.8z M37.8,108.7c0.1,0,0.2-0.1,0.2-0.2s-0.1-0.2-0.2-0.2c-0.1,0-0.2,0.1-0.2,0.2l0,0
			C37.6,108.6,37.7,108.7,37.8,108.7z M48.1,109.4c-0.2,0-0.5-0.4-0.5-0.4l-0.1,0.4c-0.1,0.3,0.6,0.7,0.7,1c0,0.1,0,0.2,0,0.2
			c0,0.1-0.2,0.3-0.1,0.4c0,0,0.1-0.1,0.2-0.2c0-0.1,0.1,0,0.1,0c0.1-0.1,0-0.2,0-0.3c0-0.1,0.1-0.2,0.2-0.2c0.1,0,0,0.4,0,0.4
			l0.1,0.4c0,0.1,0.1-0.2,0.3-0.3c0,0,0.3,0.7,0.4,0.7c0.2,0,0.1-0.4,0.2-0.3c0.4,0.4,1.4,0.3,1.9,0.4c0,0-0.5-0.4-0.3-0.6
			c0.1-0.2,0.5-0.1,0.5-0.2s-0.7-0.4-0.7-0.6s0.5-0.2,0.5-0.3c-0.2-0.2-0.9-0.3-0.9-0.3c-0.1-0.1,0.1-0.5,0.1-0.7
			c-0.1-0.3-0.6-0.4-0.6-0.4c0,0.2,0,0.4-0.2,0.5c-0.3,0.1-0.6-0.5-0.9-0.6c-0.4-0.2-1.7-0.4-1.3-0.2c0,0,0.3,0.1,0.3,0.2l-0.4,0.3
			c-0.2,0.1,0.7,0,0.9,0.1C48.5,108.8,48.7,109.4,48.1,109.4z M47.6,110.9C47.7,110.9,47.7,110.9,47.6,110.9c0.1-0.2,0.1-0.2,0-0.2
			S47.5,110.7,47.6,110.9C47.5,110.9,47.6,110.9,47.6,110.9z M47.3,110.9C47.4,110.9,47.4,110.9,47.3,110.9c0.1-0.2,0.1-0.2,0-0.2
			S47.2,110.7,47.3,110.9C47.2,110.8,47.2,110.9,47.3,110.9z M47,110.6C46.9,110.6,46.9,110.6,47,110.6c-0.1,0.2-0.1,0.2,0,0.2
			S47.1,110.8,47,110.6L47,110.6z M47.9,110.5C47.9,110.4,47.9,110.4,47.9,110.5c-0.2-0.1-0.2-0.1-0.2,0S47.7,110.6,47.9,110.5
			C47.9,110.6,47.9,110.5,47.9,110.5z M47.5,110.5C47.6,110.5,47.6,110.5,47.5,110.5c0.1-0.2,0.1-0.2,0-0.2S47.4,110.3,47.5,110.5
			C47.4,110.5,47.4,110.5,47.5,110.5z M47.2,110.4C47.2,110.3,47.2,110.3,47.2,110.4c-0.2-0.1-0.2-0.1-0.2,0S47,110.5,47.2,110.4
			C47.2,110.5,47.2,110.5,47.2,110.4z M47.7,110.1C47.7,110,47.7,110,47.7,110.1c-0.2-0.1-0.2-0.1-0.2,0S47.5,110.2,47.7,110.1
			C47.7,110.3,47.7,110.2,47.7,110.1z M47.2,110.2C47.3,110.2,47.3,110.2,47.2,110.2c0.1-0.2,0.1-0.2,0-0.2S47.1,110,47.2,110.2
			C47.1,110.2,47.1,110.2,47.2,110.2z M47.4,109.9C47.5,109.9,47.5,109.9,47.4,109.9c0.1-0.2,0.1-0.2,0-0.2S47.3,109.7,47.4,109.9
			C47.3,109.9,47.3,109.9,47.4,109.9z M49.6,108.7c0.1-0.1,0-0.3,0-0.3c-0.1,0.1-0.1,0.2-0.3,0.3C49.3,108.7,49.6,108.8,49.6,108.7z
			 M46.3,111c0-0.1-0.1-0.2-0.2-0.2S46,110.9,46,111s0.1,0.2,0.2,0.2C46.3,111.2,46.3,111.1,46.3,111z M43,109.1
			c0,0.1-0.1,0.2-0.1,0.2s0.4,0.4,0.6,0.4c0.1,0,0.4,0,0.4,0l0.1-0.1c0.1,0,0.4,0.3,0.5,0.2l0.5-0.2l-0.1,0.3
			c-0.1,0-0.1,0.1-0.1,0.2s0.1,0.2,0.2,0.2c0.1,0,0.2-0.1,0.2-0.2s0-0.1-0.1-0.2c0.4-0.2,0.7-0.1,0.7-0.1l0.2,0.3
			c0.1,0.2-0.3-0.1-0.5,0c-0.1,0-0.1,0.3-0.3,0.3c0,0-0.3,0-0.4,0.1c-0.3,0.2-0.3,1-0.2,0.9c0,0,0.1-0.2,0.2-0.2
			c0.1-0.1,0.4,0.1,0.4,0c0,0,0.1-0.2,0.2-0.2c0.1-0.1,0.4,0,0.4,0s0.1-0.1,0.2-0.2c0.1,0,0.3,0,0.3,0.1c0.1,0.4,0.4,0.8,0.6,0.8
			c0.2,0,0.4-0.2,0.4-0.2l0.3-0.2c-0.4,0-1,0-1.1-0.2l-0.1-0.3c0,0,0.2-0.3,0.3-0.5s0.3-0.4,0.2-0.7c0,0-0.1-0.2-0.1-0.3
			c0-0.1,0.1-0.3,0.1-0.2c0,0-0.3,0.3-0.5,0.2c-0.1,0-0.1-0.3-0.3-0.2c0,0-0.1,0.3-0.3,0.3c-0.1-0.3,0-0.4,0.1-0.6
			c0.1,0.1,0.1,0.1,0.2,0.1c0.1,0,0.1-0.1,0.1-0.2s-0.1-0.2-0.2-0.2c-0.1,0-0.2,0.1-0.3,0.2c0,0-0.2,0.4-0.3,0.4
			c-0.1-0.3-0.2-0.6-0.5-0.8c-0.1-0.1-0.3,0-0.4-0.1c-0.4-0.2-0.6-0.1-0.9-0.2h-0.7c-0.1,0,0.2,0.1,0.2,0.2s-0.2,0.1-0.2,0.1
			l-0.6,0.1C42.5,108.5,43,108.8,43,109.1z M45.7,108.7c0.1,0,0.2-0.1,0.2-0.2s-0.1-0.2-0.2-0.2c-0.1,0-0.2,0.1-0.2,0.2l0,0
			C45.6,108.6,45.7,108.7,45.7,108.7z M56.2,109.4c-0.2,0-0.5-0.4-0.5-0.4l-0.1,0.4c-0.1,0.3,0.6,0.7,0.7,1c0,0.1,0,0.2,0,0.2
			c0,0.1-0.2,0.3-0.1,0.4c0,0,0.1-0.1,0.2-0.2c0-0.1,0.1,0,0.1,0c0.1-0.1,0-0.2,0-0.3c0-0.1,0.1-0.2,0.2-0.2c0.1,0,0,0.4,0,0.4
			l0.1,0.4c0,0.1,0.1-0.2,0.3-0.3c0,0,0.3,0.7,0.4,0.7c0.2,0,0.1-0.4,0.2-0.3c0.4,0.4,1.4,0.3,1.9,0.4c0,0-0.5-0.4-0.3-0.6
			c0.1-0.2,0.5-0.1,0.5-0.2s-0.7-0.4-0.7-0.6s0.5-0.2,0.5-0.3c-0.2-0.2-0.9-0.3-0.9-0.3c-0.1-0.1,0.1-0.5,0.1-0.7
			c-0.1-0.3-0.6-0.4-0.6-0.4c0.1,0.2,0,0.4-0.2,0.5c-0.3,0.1-0.6-0.5-0.9-0.6c-0.4-0.2-1.7-0.4-1.3-0.2c0,0,0.3,0.1,0.3,0.2
			l-0.4,0.3c-0.2,0.1,0.7,0,0.9,0.1C56.5,108.8,56.7,109.4,56.2,109.4z M55.7,110.9C55.8,110.9,55.8,110.9,55.7,110.9
			c0.1-0.2,0.1-0.2,0-0.2S55.6,110.7,55.7,110.9C55.6,110.9,55.6,110.9,55.7,110.9z M55.3,110.9C55.4,110.9,55.4,110.9,55.3,110.9
			c0.1-0.2,0.1-0.2,0-0.2S55.2,110.7,55.3,110.9C55.2,110.8,55.2,110.9,55.3,110.9z M55,110.6C54.9,110.6,54.9,110.6,55,110.6
			c-0.1,0.2-0.1,0.2,0,0.2S55.1,110.8,55,110.6L55,110.6z M55.9,110.5C55.9,110.4,55.9,110.4,55.9,110.5c-0.2-0.1-0.2-0.1-0.2,0
			S55.7,110.6,55.9,110.5C55.9,110.6,55.9,110.5,55.9,110.5z M55.5,110.5C55.6,110.5,55.6,110.5,55.5,110.5c0.1-0.2,0.1-0.2,0-0.2
			S55.4,110.3,55.5,110.5C55.4,110.5,55.4,110.5,55.5,110.5z M55.3,110.4C55.3,110.3,55.3,110.3,55.3,110.4c-0.2-0.1-0.2-0.1-0.2,0
			S55.1,110.5,55.3,110.4C55.2,110.5,55.3,110.5,55.3,110.4z M55.7,110.1C55.7,110,55.7,110,55.7,110.1c-0.2-0.1-0.2-0.1-0.2,0
			S55.5,110.2,55.7,110.1C55.7,110.3,55.7,110.2,55.7,110.1z M55.2,110.2C55.3,110.2,55.3,110.2,55.2,110.2c0.1-0.2,0.1-0.2,0-0.2
			S55.1,110,55.2,110.2C55.1,110.2,55.2,110.2,55.2,110.2z M55.4,109.9C55.5,109.9,55.5,109.9,55.4,109.9c0.1-0.2,0.1-0.2,0-0.2
			S55.3,109.7,55.4,109.9C55.3,109.9,55.3,109.9,55.4,109.9z M57.6,108.7c0.1-0.1,0-0.3,0-0.3c-0.1,0.1-0.1,0.2-0.3,0.3
			C57.4,108.7,57.6,108.8,57.6,108.7z M54.4,111c0-0.1-0.1-0.2-0.2-0.2c-0.1,0-0.2,0.1-0.2,0.2s0.1,0.2,0.2,0.2
			C54.3,111.2,54.4,111.1,54.4,111z M51.1,109.1c0,0.1-0.1,0.2-0.1,0.2s0.4,0.4,0.6,0.4c0.1,0,0.4,0,0.4,0l0.1-0.1
			c0.1,0,0.4,0.3,0.5,0.2l0.5-0.2l-0.1,0.3c-0.1,0-0.1,0.1-0.1,0.2s0.1,0.2,0.2,0.2c0.1,0,0.2-0.1,0.2-0.2s0-0.1-0.1-0.2
			c0.4-0.2,0.7-0.1,0.7-0.1l0.2,0.3c0.1,0.2-0.3-0.1-0.5,0c-0.1,0-0.1,0.3-0.3,0.3c0,0-0.3,0-0.4,0.1c-0.3,0.2-0.3,1-0.2,0.9
			c0,0,0.1-0.2,0.2-0.2c0.1-0.1,0.4,0.1,0.4,0c0,0,0.1-0.2,0.2-0.2c0.1-0.1,0.4,0,0.4,0s0.1-0.1,0.2-0.2c0.1,0,0.3,0,0.3,0.1
			c0.1,0.4,0.4,0.8,0.6,0.8c0.2,0,0.4-0.2,0.4-0.2l0.3-0.2c-0.4,0-1,0-1.1-0.2l-0.1-0.3c0,0,0.2-0.3,0.3-0.5s0.3-0.4,0.2-0.7
			c0,0-0.1-0.2-0.1-0.3c0-0.1,0.1-0.3,0.1-0.2c0,0-0.3,0.3-0.5,0.2c-0.1,0-0.1-0.3-0.3-0.2c0,0-0.1,0.3-0.3,0.3
			c-0.1-0.3,0-0.4,0.1-0.6c0.1,0.1,0.1,0.1,0.2,0.1c0.1,0,0.1-0.1,0.1-0.2s-0.1-0.2-0.2-0.2c-0.1,0-0.2,0.1-0.3,0.2
			c0,0-0.2,0.4-0.3,0.4c-0.1-0.3-0.2-0.6-0.5-0.8c-0.1-0.1-0.3,0-0.4-0.1c-0.4-0.2-0.6-0.1-0.9-0.2H51c-0.1,0,0.2,0.1,0.2,0.2
			s-0.2,0.1-0.2,0.1l-0.6,0.1C50.5,108.5,51,108.8,51.1,109.1z M53.8,108.7c0.1,0,0.2-0.1,0.2-0.2s-0.1-0.2-0.2-0.2
			c-0.1,0-0.2,0.1-0.2,0.2l0,0C53.6,108.6,53.7,108.7,53.8,108.7z M64,109.4c-0.2,0-0.5-0.4-0.5-0.4l-0.1,0.4
			c-0.1,0.3,0.6,0.7,0.7,1c0,0.1,0,0.2,0,0.2c0,0.1-0.2,0.3-0.1,0.4c0,0,0.1-0.1,0.2-0.2c0-0.1,0.1,0,0.1,0c0.1-0.1,0-0.2,0-0.3
			c0-0.1,0.1-0.2,0.2-0.2s0,0.4,0,0.4l0.1,0.4c0,0.1,0.1-0.2,0.3-0.3c0,0,0.3,0.7,0.4,0.7c0.2,0,0.1-0.4,0.2-0.3
			c0.4,0.4,1.4,0.3,1.9,0.4c0,0-0.5-0.4-0.3-0.6c0.1-0.2,0.5-0.1,0.5-0.2s-0.7-0.4-0.7-0.6s0.5-0.2,0.5-0.3
			c-0.2-0.2-0.9-0.3-0.9-0.3c-0.1-0.1,0.1-0.5,0.1-0.7c-0.1-0.3-0.6-0.4-0.6-0.4c0,0.2,0,0.4-0.2,0.5c-0.3,0.1-0.6-0.5-0.9-0.6
			c-0.4-0.2-1.7-0.4-1.3-0.2c0,0,0.3,0.1,0.3,0.2l-0.4,0.3c-0.2,0.1,0.7,0,0.9,0.1C64.4,108.8,64.6,109.4,64,109.4z M63.5,110.9
			C63.6,110.9,63.6,110.9,63.5,110.9c0.1-0.2,0.1-0.2,0-0.2S63.4,110.7,63.5,110.9C63.4,110.9,63.5,110.9,63.5,110.9z M63.1,110.9
			C63.2,110.9,63.2,110.9,63.1,110.9c0.1-0.2,0.1-0.2,0-0.2S63,110.7,63.1,110.9L63.1,110.9z M62.8,110.6
			C62.7,110.6,62.7,110.6,62.8,110.6c-0.1,0.2-0.1,0.2,0,0.2S62.9,110.8,62.8,110.6C62.9,110.7,62.9,110.6,62.8,110.6z M63.8,110.5
			C63.8,110.4,63.8,110.4,63.8,110.5c-0.2-0.1-0.2-0.1-0.2,0S63.6,110.6,63.8,110.5L63.8,110.5z M63.4,110.5
			C63.5,110.5,63.5,110.5,63.4,110.5c0.1-0.2,0.1-0.2,0-0.2S63.3,110.3,63.4,110.5C63.2,110.5,63.3,110.5,63.4,110.5z M63.1,110.4
			C63.1,110.3,63.1,110.3,63.1,110.4c-0.2-0.1-0.2-0.1-0.2,0S62.9,110.5,63.1,110.4C63.1,110.5,63.1,110.5,63.1,110.4z M63.6,110.1
			C63.6,110,63.6,110,63.6,110.1c-0.2-0.1-0.2-0.1-0.2,0S63.4,110.2,63.6,110.1C63.6,110.2,63.6,110.2,63.6,110.1z M63.1,110.2
			C63.2,110.2,63.2,110.2,63.1,110.2c0.1-0.2,0.1-0.2,0-0.2S63,110,63.1,110.2C63,110.2,63,110.2,63.1,110.2z M63.2,109.9
			C63.3,109.9,63.3,109.9,63.2,109.9c0.1-0.2,0.1-0.2,0-0.2S63.1,109.7,63.2,109.9C63.1,109.9,63.2,109.9,63.2,109.9z M65.5,108.7
			c0.1-0.1,0-0.3,0-0.3c-0.1,0.1-0.1,0.2-0.3,0.3C65.2,108.7,65.4,108.8,65.5,108.7z M62,110.8c-0.1,0-0.2,0.1-0.2,0.2
			s0.1,0.2,0.2,0.2c0.1,0,0.2-0.1,0.2-0.2S62.1,110.8,62,110.8z M58.9,109.1c0,0.1-0.1,0.2-0.1,0.2s0.4,0.4,0.6,0.4
			c0.1,0,0.4,0,0.4,0l0.1-0.1c0.1,0,0.4,0.3,0.5,0.2l0.5-0.2l-0.1,0.3c-0.1,0-0.1,0.1-0.1,0.2s0.1,0.2,0.2,0.2
			c0.1,0,0.2-0.1,0.2-0.2s0-0.1-0.1-0.2c0.4-0.2,0.7-0.1,0.7-0.1l0.2,0.3c0.1,0.2-0.3-0.1-0.5,0c-0.1,0-0.1,0.3-0.3,0.3
			c0,0-0.3,0-0.4,0.1c-0.3,0.2-0.3,1-0.2,0.9c0,0,0.1-0.2,0.2-0.2c0.1-0.1,0.4,0.1,0.4,0c0,0,0.1-0.2,0.2-0.2c0.1-0.1,0.4,0,0.4,0
			s0.1-0.1,0.2-0.2c0.1,0,0.3,0,0.3,0.1c0.1,0.4,0.4,0.8,0.6,0.8c0.2,0,0.4-0.2,0.4-0.2l0.3-0.2c-0.4,0-1,0-1.1-0.2l-0.1-0.3
			c0,0,0.2-0.3,0.3-0.5s0.3-0.4,0.2-0.7c0,0-0.1-0.2-0.1-0.3c0-0.1,0.1-0.3,0.1-0.2c0,0-0.3,0.3-0.5,0.2c-0.1,0-0.1-0.3-0.3-0.2
			c0,0-0.1,0.3-0.3,0.3c-0.1-0.3,0-0.4,0.1-0.6c0.1,0.1,0.1,0.1,0.2,0.1c0.1,0,0.1-0.1,0.1-0.2s-0.1-0.2-0.2-0.2
			c-0.1,0-0.2,0.1-0.3,0.2c0,0-0.2,0.4-0.3,0.4c-0.1-0.3-0.2-0.6-0.5-0.8c-0.1-0.1-0.3,0-0.4-0.1c-0.4-0.2-0.6-0.1-0.9-0.2h-0.7
			c-0.1,0,0.2,0.1,0.2,0.2s-0.2,0.1-0.2,0.1l-0.6,0.1C58.3,108.5,58.9,108.8,58.9,109.1z M61.6,108.7c0.1,0,0.2-0.1,0.2-0.2
			s-0.1-0.2-0.2-0.2c-0.1,0-0.2,0.1-0.2,0.2l0,0C61.5,108.6,61.5,108.7,61.6,108.7z M67.5,145.4c0.4-0.4,0.3-1.4,0.4-1.9
			c0,0-0.4,0.5-0.6,0.3c-0.2-0.1-0.1-0.5-0.2-0.5s-0.4,0.7-0.6,0.7s-0.2-0.4-0.3-0.5c-0.2,0.2-0.4,0.9-0.4,0.9
			c-0.1,0.1-0.5-0.1-0.7-0.1c-0.3,0.1-0.4,0.6-0.4,0.6c0.2-0.1,0.4,0,0.5,0.2c0.1,0.3-0.5,0.6-0.6,0.9c-0.2,0.4-0.4,1.7-0.2,1.3
			c0,0,0.1-0.3,0.2-0.3l0.3,0.4c0.1,0.2,0-0.7,0.1-0.9c0.1-0.3,0.7-0.4,0.7,0.1c0,0.2-0.5,0.5-0.5,0.5l0.4,0.1
			c0.3,0.1,0.7-0.6,1-0.7c0.1,0,0.2,0,0.2,0c0.1,0,0.3,0.2,0.4,0.1c0,0-0.1-0.1-0.2-0.2c-0.1,0,0-0.1,0-0.1c-0.1-0.1-0.2,0-0.3,0
			c-0.1,0-0.2-0.1-0.2-0.2c0-0.1,0.4,0,0.4,0l0.4-0.1c0.1,0-0.2-0.1-0.3-0.3c0,0,0.7-0.3,0.7-0.4C67.8,145.4,67.4,145.5,67.5,145.4z
			 M65.1,145.5c0,0,0.1-0.2,0-0.3s-0.3,0-0.3,0C64.9,145.2,65,145.3,65.1,145.5z M67.1,147.1c-0.1,0-0.1,0-0.1,0.1s0,0.1,0.1,0.1
			s0.1,0,0.1-0.1C67.3,147.1,67.2,147.1,67.1,147.1z M67.1,147.5c-0.1,0-0.1,0-0.1,0.1s0,0.1,0.1,0.1s0.1,0,0.1-0.1
			S67.2,147.5,67.1,147.5z M67.1,147.8c-0.1,0-0.1,0-0.1,0.1s0,0.1,0.1,0.1s0.1,0,0.1-0.1S67.2,147.8,67.1,147.8z M66.8,146.9
			c-0.1,0-0.1,0-0.1,0.1s0,0.1,0.1,0.1s0.1,0,0.1-0.1C66.9,147,66.9,146.9,66.8,146.9z M66.8,147.5c0.1,0,0.1,0,0.1-0.1
			s0-0.1-0.1-0.1s-0.1,0-0.1,0.1C66.7,147.4,66.7,147.5,66.8,147.5z M66.8,147.6c-0.1,0-0.1,0-0.1,0.1s0,0.1,0.1,0.1s0.1,0,0.1-0.1
			S66.8,147.6,66.8,147.6z M66.5,147.1c-0.1,0-0.1,0-0.1,0.1s0,0.1,0.1,0.1s0.1,0,0.1-0.1C66.6,147.2,66.5,147.1,66.5,147.1z
			 M66.4,147.5c-0.1,0-0.1,0-0.1,0.1s0,0.1,0.1,0.1s0.1,0,0.1-0.1C66.6,147.6,66.5,147.5,66.4,147.5z M66.2,147.4
			c-0.1,0-0.1,0-0.1,0.1s0,0.1,0.1,0.1s0.1,0,0.1-0.1C66.3,147.4,66.2,147.4,66.2,147.4z M67.8,135.7c0,0-0.4,0.5-0.6,0.3
			c-0.2-0.1-0.1-0.5-0.2-0.5s-0.4,0.7-0.6,0.7s-0.2-0.5-0.3-0.5c-0.2,0.2-0.4,0.9-0.4,0.9c-0.1,0.1-0.5-0.1-0.7-0.1
			c-0.3,0.1-0.4,0.6-0.4,0.6c0.2,0,0.4,0,0.5,0.2c0.1,0.3-0.5,0.6-0.6,0.9c-0.2,0.4-0.4,1.7-0.2,1.3l0,0c0,0,0.1-0.3,0.2-0.3
			l0.3,0.4c0.1,0.2,0-0.7,0.1-0.9c0.1-0.3,0.7-0.4,0.7,0.1c0,0.2-0.5,0.5-0.5,0.5l0.4,0.1c0.3,0.1,0.7-0.6,1-0.7c0.1,0,0.2,0,0.2,0
			c0.1,0,0.3,0.2,0.4,0.1c0,0-0.1-0.1-0.2-0.2c-0.1,0,0-0.1,0-0.1c-0.1-0.1-0.2,0-0.3,0c-0.1,0-0.2-0.1-0.2-0.2c0-0.1,0.4,0,0.4,0
			l0.4-0.1c0.1,0-0.2-0.1-0.3-0.3c0,0,0.7-0.3,0.7-0.4c0-0.2-0.4-0.1-0.3-0.2C67.9,137.2,67.8,136.2,67.8,135.7z M67.2,139.4
			c0-0.1,0-0.1-0.1-0.1s-0.1,0-0.1,0.1s0,0.1,0.1,0.1C67.1,139.5,67.2,139.5,67.2,139.4z M67,139.7c-0.1,0-0.1,0-0.1,0.1
			s0,0.1,0.1,0.1s0.1,0,0.1-0.1S67.1,139.7,67,139.7z M67,140c-0.1,0-0.1,0-0.1,0.1s0,0.1,0.1,0.1s0.1,0,0.1-0.1S67.1,140,67,140z
			 M66.7,139.2c-0.1,0-0.1,0-0.1,0.1s0,0.1,0.1,0.1s0.1,0,0.1-0.1C66.8,139.2,66.8,139.2,66.7,139.2z M66.8,139.6
			c0-0.1,0-0.1-0.1-0.1s-0.1,0-0.1,0.1s0,0.1,0.1,0.1C66.8,139.7,66.8,139.6,66.8,139.6z M66.7,140c0.1,0,0.1,0,0.1-0.1
			s0-0.1-0.1-0.1s-0.1,0-0.1,0.1S66.7,140,66.7,140z M66.5,139.5c0-0.1,0-0.1-0.1-0.1s-0.1,0-0.1,0.1s0,0.1,0.1,0.1
			S66.5,139.5,66.5,139.5z M66.3,139.9c0,0.1,0,0.1,0.1,0.1s0.1,0,0.1-0.1s0-0.1-0.1-0.1C66.3,139.8,66.3,139.8,66.3,139.9z
			 M66,139.7c0,0.1,0,0.1,0.1,0.1s0.1,0,0.1-0.1s0-0.1-0.1-0.1C66,139.6,66,139.6,66,139.7z M65,137.7c0,0,0.1-0.2,0-0.3
			s-0.3,0-0.3,0C64.8,137.5,64.9,137.5,65,137.7z M64.5,143.7c0.1,0,0.1,0.2,0.1,0.2l0.1,0.6c0,0.1,0.4-0.5,0.6-0.5
			c0.1,0,0.2,0.1,0.2,0.1s0.4-0.4,0.4-0.6c0-0.1,0-0.4,0-0.4l-0.1-0.1c0-0.1,0.3-0.4,0.2-0.5l-0.2-0.5l0.3,0.1
			c0,0.1,0.1,0.1,0.2,0.1s0.2-0.1,0.2-0.2c0-0.1-0.1-0.2-0.2-0.2s-0.1,0-0.2,0.1c-0.3-0.4-0.1-0.7-0.1-0.7l0.3-0.2
			c0.2-0.1-0.1,0.3,0,0.5c0,0.1,0.3,0.1,0.3,0.3c0,0,0,0.3,0.1,0.4c0.2,0.3,1,0.3,0.9,0.2c0,0-0.2-0.1-0.2-0.2
			c-0.1-0.1,0.1-0.4,0-0.4c0,0-0.2-0.1-0.2-0.2c-0.1-0.1,0-0.4,0-0.4S67,141,67,140.9s0-0.3,0.1-0.3c0.4-0.1,0.8-0.4,0.8-0.6
			c0-0.2-0.2-0.4-0.2-0.4l-0.2-0.3c0,0.4,0,1-0.2,1.1l-0.3,0.1c0,0-0.3-0.2-0.5-0.3s-0.4-0.3-0.7-0.2c0,0-0.2,0.1-0.3,0.1
			c-0.1,0-0.3-0.1-0.2-0.1c0,0,0.3,0.3,0.2,0.5c0,0.1-0.3,0.1-0.2,0.3c0,0,0.3,0.1,0.3,0.3c-0.3,0.1-0.4,0-0.6-0.1
			c0.1-0.1,0.1-0.1,0.1-0.2c0-0.1-0.1-0.1-0.2-0.1s-0.2,0.1-0.2,0.2c0,0.1,0.1,0.2,0.2,0.3c0,0,0.4,0.2,0.4,0.3
			c-0.3,0.1-0.6,0.2-0.8,0.5c-0.1,0.1-0.1,0.3-0.1,0.4c-0.2,0.4-0.1,0.6-0.2,0.9v0.7C64.3,144,64.4,143.7,64.5,143.7z M67.1,140.9
			c0,0.1,0.1,0.2,0.2,0.2s0.2-0.1,0.2-0.2c0-0.1-0.1-0.2-0.2-0.2S67.1,140.8,67.1,140.9z M64.7,141.5L64.7,141.5
			c0.1,0,0.2-0.1,0.2-0.2c0-0.1-0.1-0.2-0.2-0.2s-0.2,0.1-0.2,0.2C64.6,141.4,64.7,141.5,64.7,141.5z M64.4,131.6L64.4,131.6
			c0,0,0.1-0.3,0.2-0.3l0.3,0.4c0.1,0.2,0-0.7,0.1-0.9c0.1-0.3,0.7-0.4,0.7,0.1c0,0.2-0.5,0.5-0.5,0.5l0.4,0.1
			c0.3,0.1,0.7-0.6,1-0.7c0.1,0,0.2,0,0.2,0c0.1,0,0.3,0.2,0.4,0.1c0,0-0.1-0.1-0.2-0.2c-0.1,0,0-0.1,0-0.1c-0.1-0.1-0.2,0-0.3,0
			c-0.1,0-0.2-0.1-0.2-0.2c0-0.1,0.4,0,0.4,0l0.4-0.1c0.1,0-0.2-0.1-0.3-0.3c0,0,0.7-0.3,0.7-0.4c0-0.2-0.4-0.1-0.3-0.2
			c0.4-0.4,0.3-1.4,0.4-1.9c0,0-0.4,0.5-0.6,0.3c-0.2-0.1-0.1-0.5-0.2-0.5s-0.4,0.7-0.6,0.7s-0.2-0.5-0.3-0.5
			c-0.2,0.2-0.4,0.9-0.4,0.9c-0.1,0.1-0.5-0.1-0.7-0.1c-0.3,0.1-0.4,0.6-0.4,0.6c0.2-0.1,0.4,0,0.5,0.2c0.1,0.3-0.5,0.6-0.6,0.9
			C64.4,130.8,64.2,132,64.4,131.6z M67.2,131.5c0-0.1,0-0.1-0.1-0.1s-0.1,0-0.1,0.1s0,0.1,0.1,0.1L67.2,131.5z M67,131.7
			c-0.1,0-0.1,0-0.1,0.1s0,0.1,0.1,0.1s0.1,0,0.1-0.1S67.1,131.7,67,131.7z M67,132c-0.1,0-0.1,0-0.1,0.1s0,0.1,0.1,0.1
			s0.1,0,0.1-0.1C67.1,132.1,67.1,132,67,132z M66.7,131.2c-0.1,0-0.1,0-0.1,0.1s0,0.1,0.1,0.1s0.1,0,0.1-0.1
			C66.8,131.2,66.8,131.2,66.7,131.2z M66.8,131.6c0-0.1,0-0.1-0.1-0.1s-0.1,0-0.1,0.1s0,0.1,0.1,0.1
			C66.8,131.7,66.8,131.7,66.8,131.6z M66.7,132.1c0.1,0,0.1,0,0.1-0.1s0-0.1-0.1-0.1s-0.1,0-0.1,0.1L66.7,132.1z M66.5,131.5
			c0-0.1,0-0.1-0.1-0.1s-0.1,0-0.1,0.1s0,0.1,0.1,0.1S66.5,131.5,66.5,131.5z M66.3,131.9c0,0.1,0,0.1,0.1,0.1s0.1,0,0.1-0.1
			s0-0.1-0.1-0.1C66.3,131.8,66.3,131.8,66.3,131.9z M66,131.7c0,0.1,0,0.1,0.1,0.1s0.1,0,0.1-0.1s0-0.1-0.1-0.1
			C66,131.6,66,131.7,66,131.7z M65,129.7c0,0,0.1-0.2,0-0.3s-0.3,0-0.3,0C64.8,129.5,64.9,129.6,65,129.7z M67.1,132.9
			c0,0.1,0.1,0.2,0.2,0.2s0.2-0.1,0.2-0.2c0-0.1-0.1-0.2-0.2-0.2C67.2,132.8,67.1,132.8,67.1,132.9z M67.6,131.6l-0.2-0.3
			c0,0.4,0,1-0.2,1.1l-0.3,0.1c0,0-0.3-0.2-0.5-0.3s-0.4-0.3-0.7-0.2c0,0-0.2,0.1-0.3,0.1c-0.1,0-0.3-0.1-0.2-0.1
			c0,0,0.3,0.3,0.2,0.5c0,0.1-0.3,0.1-0.2,0.3c0,0,0.3,0.1,0.3,0.3c-0.3,0.1-0.4,0-0.6-0.1c0.1-0.1,0.1-0.1,0.1-0.2
			c0-0.1-0.1-0.1-0.2-0.1s-0.2,0.1-0.2,0.2c0,0.1,0.1,0.2,0.2,0.3c0,0,0.4,0.2,0.4,0.3c-0.3,0.1-0.6,0.2-0.8,0.5
			c-0.1,0.1-0.1,0.3-0.1,0.4c-0.2,0.4-0.1,0.6-0.2,0.9v0.7c0,0.1,0.1-0.2,0.2-0.2s0.1,0.2,0.1,0.2l0.1,0.6c0,0.1,0.4-0.5,0.6-0.5
			c0.1,0,0.2,0.1,0.2,0.1s0.4-0.4,0.4-0.6c0-0.1,0-0.4,0-0.4l-0.1-0.1c0-0.1,0.3-0.4,0.2-0.5l-0.2-0.5l0.3,0.1
			c0,0.1,0.1,0.1,0.2,0.1s0.2-0.1,0.2-0.2c0-0.1-0.1-0.2-0.2-0.2s-0.1,0-0.2,0.1c-0.3-0.4-0.1-0.7-0.1-0.7l0.3-0.2
			c0.2-0.1-0.1,0.3,0,0.5c0,0.1,0.3,0.1,0.3,0.3c0,0,0,0.3,0.1,0.4c0.2,0.3,1,0.3,0.9,0.2c0,0-0.2-0.1-0.2-0.2
			c-0.1-0.1,0.1-0.4,0-0.4c0,0-0.2-0.1-0.2-0.2c-0.1-0.1,0-0.4,0-0.4s0-0.3,0-0.4s0-0.3,0.1-0.3c0.4-0.1,0.8-0.4,0.8-0.6
			C67.8,131.9,67.6,131.6,67.6,131.6z M64.7,133.5L64.7,133.5c0.1,0,0.2-0.1,0.2-0.2c0-0.1-0.1-0.2-0.2-0.2s-0.2,0.1-0.2,0.2
			C64.6,133.4,64.7,133.5,64.7,133.5z M64.4,123.6L64.4,123.6c0,0,0.1-0.3,0.2-0.3l0.3,0.4c0.1,0.2,0-0.7,0.1-0.9
			c0.1-0.3,0.7-0.4,0.7,0.1c0,0.2-0.5,0.5-0.5,0.5l0.4,0.1c0.3,0.1,0.7-0.6,1-0.7c0.1,0,0.2,0,0.2,0c0.1,0,0.3,0.2,0.4,0.1
			c0,0-0.1-0.1-0.2-0.2c-0.1,0,0-0.1,0-0.1c-0.1-0.1-0.2,0-0.3,0c-0.1,0-0.2-0.1-0.2-0.2s0.4,0,0.4,0l0.4-0.1c0.1,0-0.2-0.1-0.3-0.3
			c0,0,0.7-0.3,0.7-0.4c0-0.2-0.4-0.1-0.3-0.2c0.4-0.4,0.3-1.4,0.4-1.9c0,0-0.4,0.5-0.6,0.3c-0.2-0.1-0.1-0.5-0.2-0.5
			s-0.4,0.7-0.6,0.7s-0.2-0.5-0.3-0.5c-0.2,0.2-0.4,0.9-0.4,0.9c-0.1,0.1-0.5-0.1-0.7-0.1c-0.3,0.1-0.4,0.6-0.4,0.6
			c0.2,0,0.4,0,0.5,0.2c0.1,0.3-0.5,0.6-0.6,0.9C64.4,122.8,64.2,124,64.4,123.6z M67.2,123.4C67.2,123.3,67.2,123.3,67.2,123.4
			c-0.2-0.1-0.2-0.1-0.2,0S67,123.5,67.2,123.4C67.1,123.5,67.2,123.5,67.2,123.4z M67,123.7C66.9,123.7,66.9,123.7,67,123.7
			c-0.1,0.2-0.1,0.2,0,0.2S67.1,123.9,67,123.7C67.1,123.7,67.1,123.7,67,123.7z M67,124C66.9,124,66.9,124,67,124
			c-0.1,0.2-0.1,0.2,0,0.2S67.1,124.2,67,124C67.1,124.1,67.1,124,67,124z M66.7,123.2C66.6,123.2,66.6,123.2,66.7,123.2
			c-0.1,0.2-0.1,0.2,0,0.2S66.8,123.4,66.7,123.2C66.8,123.2,66.8,123.2,66.7,123.2z M66.8,123.6C66.8,123.5,66.8,123.5,66.8,123.6
			c-0.2-0.1-0.2-0.1-0.2,0S66.6,123.7,66.8,123.6C66.8,123.7,66.8,123.7,66.8,123.6z M66.7,124C66.8,124,66.8,124,66.7,124
			c0.1-0.2,0.1-0.2,0-0.2S66.6,123.8,66.7,124C66.6,124,66.7,124,66.7,124z M66.5,123.5C66.5,123.4,66.5,123.4,66.5,123.5
			c-0.2-0.1-0.2-0.1-0.2,0S66.3,123.6,66.5,123.5C66.5,123.6,66.5,123.5,66.5,123.5z M66.3,123.9C66.3,124,66.3,124,66.3,123.9
			c0.2,0.1,0.2,0.1,0.2,0S66.5,123.8,66.3,123.9C66.3,123.8,66.3,123.8,66.3,123.9z M66,123.7C66,123.8,66,123.8,66,123.7
			c0.2,0.1,0.2,0.1,0.2,0S66.2,123.6,66,123.7C66,123.6,66,123.6,66,123.7z M65,121.7c0,0,0.1-0.2,0-0.3c-0.1-0.1-0.3,0-0.3,0
			C64.8,121.5,64.9,121.5,65,121.7z M67.1,124.9c0,0.1,0.1,0.2,0.2,0.2s0.2-0.1,0.2-0.2s-0.1-0.2-0.2-0.2
			C67.2,124.8,67.1,124.8,67.1,124.9z M67.6,123.6l-0.2-0.3c0,0.4,0,1-0.2,1.1l-0.3,0.1c0,0-0.3-0.2-0.5-0.3
			c-0.2-0.1-0.4-0.3-0.7-0.2c0,0-0.2,0.1-0.3,0.1c-0.1,0-0.3-0.1-0.2-0.1c0,0,0.3,0.3,0.2,0.5c0,0.1-0.3,0.1-0.2,0.3
			c0,0,0.3,0.1,0.3,0.3c-0.3,0.1-0.4,0-0.6-0.1c0.1-0.1,0.1-0.1,0.1-0.2s-0.1-0.1-0.2-0.1s-0.2,0.1-0.2,0.2s0.1,0.2,0.2,0.3
			c0,0,0.4,0.2,0.4,0.3c-0.3,0.1-0.6,0.2-0.8,0.5c-0.1,0.1-0.1,0.3-0.1,0.4c-0.2,0.4-0.1,0.6-0.2,0.9v0.7c0,0.1,0.1-0.2,0.2-0.2
			s0.1,0.2,0.1,0.2l0.1,0.6c0,0.1,0.4-0.5,0.6-0.5c0.1,0,0.2,0.1,0.2,0.1s0.4-0.4,0.4-0.6c0-0.1,0-0.4,0-0.4l-0.1-0.1
			c0-0.1,0.3-0.4,0.2-0.5l-0.2-0.5l0.3,0.1c0,0.1,0.1,0.1,0.2,0.1s0.2-0.1,0.2-0.2s-0.1-0.2-0.2-0.2s-0.1,0-0.2,0.1
			c-0.3-0.4-0.1-0.7-0.1-0.7l0.3-0.2c0.2-0.1-0.1,0.3,0,0.5c0,0.1,0.3,0.1,0.3,0.3c0,0,0,0.3,0.1,0.4c0.2,0.2,1,0.3,0.9,0.2
			c0,0-0.2-0.1-0.2-0.2c-0.1-0.1,0.1-0.4,0-0.4c0,0-0.2-0.1-0.2-0.2c-0.1-0.1,0-0.4,0-0.4s0-0.3,0-0.4s0-0.3,0.1-0.3
			c0.4-0.1,0.8-0.4,0.8-0.6C67.8,123.8,67.6,123.6,67.6,123.6z M64.7,125.5L64.7,125.5c0.1,0,0.2-0.1,0.2-0.2s-0.1-0.2-0.2-0.2
			s-0.2,0.1-0.2,0.2C64.6,125.4,64.7,125.5,64.7,125.5z M67.2,112.2c-0.2-0.1-0.1-0.5-0.2-0.5s-0.4,0.7-0.6,0.7s-0.2-0.5-0.3-0.5
			c-0.2,0.2-0.4,0.9-0.4,0.9c-0.1,0.1-0.5-0.1-0.7-0.1c-0.3,0.1-0.4,0.6-0.4,0.6c0.2,0,0.4,0,0.5,0.2c0.1,0.3-0.5,0.6-0.6,0.9
			c-0.2,0.4-0.4,1.7-0.2,1.3l0,0c0,0,0.1-0.3,0.2-0.3l0.3,0.4c0.1,0.2,0-0.7,0.1-0.9c0.1-0.3,0.7-0.4,0.7,0.1c0,0.2-0.5,0.5-0.5,0.5
			l0.4,0.1c0.3,0.1,0.7-0.6,1-0.7c0.1,0,0.2,0,0.2,0c0.1,0,0.3,0.2,0.4,0.1c0,0-0.1-0.1-0.2-0.2c-0.1,0,0-0.1,0-0.1
			c-0.1-0.1-0.2,0-0.3,0c-0.1,0-0.2-0.1-0.2-0.2s0.4,0,0.4,0l0.4-0.1c0.1,0-0.2-0.1-0.3-0.3c0,0,0.7-0.3,0.7-0.4
			c0-0.2-0.4-0.1-0.3-0.2c0.4-0.4,0.3-1.4,0.4-1.9C67.8,111.9,67.4,112.3,67.2,112.2z M67.2,115.6C67.2,115.5,67.2,115.5,67.2,115.6
			c-0.2-0.1-0.2-0.1-0.2,0S67,115.7,67.2,115.6C67.1,115.7,67.2,115.7,67.2,115.6z M66.9,116C66.9,116.1,66.9,116.1,66.9,116
			c0.2,0.1,0.2,0.1,0.2,0S67.1,115.9,66.9,116C67,115.9,66.9,115.9,66.9,116z M67,116.4C67.1,116.4,67.1,116.4,67,116.4
			c0.1-0.2,0.1-0.2,0-0.2S66.9,116.2,67,116.4L67,116.4z M66.7,115.5C66.8,115.5,66.8,115.5,66.7,115.5c0.1-0.2,0.1-0.2,0-0.2
			S66.6,115.3,66.7,115.5C66.6,115.5,66.7,115.5,66.7,115.5z M66.7,115.9C66.8,115.9,66.8,115.9,66.7,115.9c0.1-0.2,0.1-0.2,0-0.2
			S66.6,115.7,66.7,115.9C66.6,115.8,66.6,115.9,66.7,115.9z M66.7,116C66.6,116,66.6,116,66.7,116c-0.1,0.2-0.1,0.2,0,0.2
			S66.8,116.2,66.7,116C66.8,116,66.8,116,66.7,116z M66.5,115.6C66.5,115.5,66.5,115.5,66.5,115.6c-0.2-0.1-0.2-0.1-0.2,0
			S66.3,115.7,66.5,115.6C66.5,115.7,66.5,115.7,66.5,115.6z M66.3,116C66.3,116.1,66.3,116.1,66.3,116c0.2,0.1,0.2,0.1,0.2,0
			S66.5,115.9,66.3,116C66.3,115.9,66.3,116,66.3,116z M66.2,115.9C66.2,115.8,66.2,115.8,66.2,115.9c-0.2-0.1-0.2-0.1-0.2,0
			S66,116,66.2,115.9L66.2,115.9z M65,113.9c0,0,0.1-0.2,0-0.3c-0.1-0.1-0.3,0-0.3,0C64.8,113.6,64.9,113.7,65,113.9z M67.1,117.1
			c0,0.1,0.1,0.2,0.2,0.2s0.2-0.1,0.2-0.2s-0.1-0.2-0.2-0.2S67.1,117,67.1,117.1z M67.6,115.7l-0.2-0.3c0,0.4,0,1-0.2,1.1l-0.3,0.1
			c0,0-0.3-0.2-0.5-0.3c-0.2-0.1-0.4-0.3-0.7-0.2c0,0-0.2,0.1-0.3,0.1c-0.1,0-0.3-0.1-0.2-0.1c0,0,0.3,0.3,0.2,0.5
			c0,0.1-0.3,0.1-0.2,0.3c0,0,0.3,0.1,0.3,0.3c-0.3,0.1-0.4,0-0.6-0.1C65,117,65,117,65,116.9s-0.1-0.1-0.2-0.1s-0.2,0.1-0.2,0.2
			s0.1,0.2,0.2,0.3c0,0,0.4,0.2,0.4,0.3c-0.3,0.1-0.6,0.2-0.8,0.5c-0.1,0.1-0.1,0.3-0.1,0.4c-0.2,0.4-0.1,0.6-0.2,0.9v0.7
			c0,0.1,0.1-0.2,0.2-0.2s0.1,0.2,0.1,0.2l0.1,0.6c0,0.1,0.4-0.5,0.6-0.5c0.1,0,0.2,0.1,0.2,0.1s0.4-0.4,0.4-0.6c0-0.1,0-0.4,0-0.4
			l-0.1-0.1c0-0.1,0.3-0.4,0.2-0.5l-0.2-0.5l0.3,0.1c0,0.1,0.1,0.1,0.2,0.1s0.2-0.1,0.2-0.2s-0.1-0.2-0.2-0.2s-0.1,0-0.2,0.1
			c-0.3-0.4-0.1-0.7-0.1-0.7l0.3-0.2c0.2-0.1-0.1,0.3,0,0.5c0,0.1,0.3,0.1,0.3,0.3c0,0,0,0.3,0.1,0.4c0.2,0.3,1,0.3,0.9,0.2
			c0,0-0.2-0.1-0.2-0.2c-0.1-0.1,0.1-0.4,0-0.4c0,0-0.2-0.1-0.2-0.2c-0.1-0.1,0-0.4,0-0.4s-0.1-0.1-0.2-0.2c0-0.1,0-0.3,0.1-0.3
			c0.4-0.1,0.8-0.4,0.8-0.6C67.8,116,67.6,115.7,67.6,115.7z M64.7,117.6c0.1,0,0.2-0.1,0.2-0.2s-0.1-0.2-0.2-0.2s-0.2,0.1-0.2,0.2
			C64.6,117.6,64.7,117.6,64.7,117.6L64.7,117.6z M28.4,112.4c0.2,0.1,0.1,0.5,0.2,0.5s0.4-0.7,0.6-0.7s0.2,0.5,0.3,0.5
			c0.2-0.2,0.4-0.9,0.4-0.9c0.1-0.1,0.5,0.1,0.7,0.1c0.3-0.1,0.4-0.6,0.4-0.6c-0.2,0-0.4,0-0.5-0.2c-0.1-0.3,0.5-0.6,0.6-0.9
			c0.2-0.4,0.4-1.7,0.2-1.3c0,0-0.1,0.3-0.2,0.3l-0.3-0.4c-0.1-0.2,0,0.7-0.1,0.9c-0.1,0.3-0.7,0.4-0.7-0.1c0-0.2,0.5-0.5,0.5-0.5
			l-0.4-0.1c-0.3-0.1-0.7,0.6-1,0.7c-0.1,0-0.2,0-0.2,0c-0.1,0-0.3-0.2-0.4-0.1c0,0,0.1,0.1,0.2,0.2c0.1,0,0,0.1,0,0.1
			c0.1,0.1,0.2,0,0.3,0c0.1,0,0.2,0.1,0.2,0.2s-0.4,0-0.4,0l-0.4,0.1c-0.1,0,0.2,0.1,0.3,0.3c0,0-0.7,0.3-0.7,0.4
			c0,0.2,0.4,0.1,0.3,0.2c-0.4,0.4-0.3,1.4-0.4,1.9C27.8,112.7,28.2,112.3,28.4,112.4z M30.6,110.7c0,0-0.1,0.2,0,0.3
			c0.1,0.1,0.3,0,0.3,0C30.8,111,30.7,110.9,30.6,110.7z M28.5,109.1c0.1,0,0.1,0,0.1-0.1s0-0.1-0.1-0.1s-0.1,0-0.1,0.1L28.5,109.1z
			 M28.6,108.7c0.1,0,0.1,0,0.1-0.1s0-0.1-0.1-0.1s-0.1,0-0.1,0.1S28.5,108.7,28.6,108.7z M28.6,108.4c0.1,0,0.1,0,0.1-0.1
			s0-0.1-0.1-0.1s-0.1,0-0.1,0.1S28.5,108.4,28.6,108.4z M28.9,109.3c0.1,0,0.1,0,0.1-0.1s0-0.1-0.1-0.1s-0.1,0-0.1,0.1
			C28.8,109.2,28.8,109.3,28.9,109.3z M28.9,108.7c-0.1,0-0.1,0-0.1,0.1s0,0.1,0.1,0.1s0.1,0,0.1-0.1C29,108.8,29,108.7,28.9,108.7z
			 M28.9,108.6c0.1,0,0.1,0,0.1-0.1s0-0.1-0.1-0.1s-0.1,0-0.1,0.1C28.8,108.5,28.8,108.6,28.9,108.6z M29.2,109.1
			c0.1,0,0.1,0,0.1-0.1s0-0.1-0.1-0.1s-0.1,0-0.1,0.1C29.1,109,29.1,109.1,29.2,109.1z M29.2,108.7c0.1,0,0.1,0,0.1-0.1
			s0-0.1-0.1-0.1s-0.1,0-0.1,0.1L29.2,108.7z M29.5,108.8c0.1,0,0.1,0,0.1-0.1s0-0.1-0.1-0.1s-0.1,0-0.1,0.1S29.5,108.8,29.5,108.8z
			 M27.9,120.5c0,0,0.4-0.5,0.6-0.3c0.2,0.1,0.1,0.5,0.2,0.5s0.4-0.7,0.6-0.7s0.2,0.5,0.3,0.5c0.2-0.2,0.4-0.9,0.4-0.9
			c0.1-0.1,0.5,0.1,0.7,0.1c0.3-0.1,0.4-0.6,0.4-0.6c-0.2,0-0.4,0-0.5-0.2c-0.1-0.3,0.5-0.6,0.6-0.9c0.2-0.4,0.4-1.7,0.2-1.3
			c0,0-0.1,0.3-0.2,0.3l-0.3-0.4c-0.1-0.2,0,0.7-0.1,0.9c-0.1,0.3-0.7,0.4-0.7-0.1c0-0.2,0.5-0.5,0.5-0.5l-0.4-0.1
			c-0.3-0.1-0.7,0.6-1,0.7c-0.1,0-0.2,0-0.2,0c-0.1,0-0.3-0.2-0.4-0.1c0,0,0.1,0.1,0.2,0.2s0,0.1,0,0.1c0.1,0.1,0.2,0,0.3,0
			c0.1,0,0.2,0.1,0.2,0.2s-0.4,0-0.4,0l-0.4,0.1c-0.1,0,0.2,0.1,0.3,0.3c0,0-0.7,0.3-0.7,0.4c0,0.2,0.4,0.1,0.3,0.2
			C27.8,119,27.9,119.9,27.9,120.5z M28.5,116.8c0,0.1,0,0.1,0.1,0.1s0.1,0,0.1-0.1s0-0.1-0.1-0.1S28.5,116.7,28.5,116.8z
			 M28.7,116.5c0.1,0,0.1,0,0.1-0.1s0-0.1-0.1-0.1s-0.1,0-0.1,0.1S28.6,116.5,28.7,116.5z M28.7,116.2c0.1,0,0.1,0,0.1-0.1
			s0-0.1-0.1-0.1s-0.1,0-0.1,0.1C28.6,116.1,28.6,116.2,28.7,116.2z M29,117c0.1,0,0.1,0,0.1-0.1s0-0.1-0.1-0.1s-0.1,0-0.1,0.1
			S28.9,117,29,117z M28.9,116.6c0,0.1,0,0.1,0.1,0.1s0.1,0,0.1-0.1s0-0.1-0.1-0.1S28.9,116.5,28.9,116.6z M29,116.2
			c-0.1,0-0.1,0-0.1,0.1s0,0.1,0.1,0.1s0.1,0,0.1-0.1S29,116.2,29,116.2z M29.2,116.7c0,0.1,0,0.1,0.1,0.1s0.1,0,0.1-0.1
			s0-0.1-0.1-0.1S29.2,116.7,29.2,116.7z M29.4,116.3c0-0.1,0-0.1-0.1-0.1s-0.1,0-0.1,0.1s0,0.1,0.1,0.1S29.4,116.4,29.4,116.3z
			 M29.7,116.5c0-0.1,0-0.1-0.1-0.1s-0.1,0-0.1,0.1s0,0.1,0.1,0.1S29.7,116.6,29.7,116.5z M30.7,118.5c0,0-0.1,0.2,0,0.3
			c0.1,0.1,0.3,0,0.3,0C30.9,118.7,30.8,118.7,30.7,118.5z M31.4,112.3c0-0.1-0.1,0.2-0.2,0.2s-0.1-0.2-0.1-0.2l-0.1-0.6
			c0-0.1-0.4,0.5-0.6,0.5c-0.1,0-0.2-0.1-0.2-0.1s-0.4,0.4-0.4,0.6c0,0.1,0,0.4,0,0.4l0.1,0.1c0,0.1-0.3,0.4-0.2,0.5l0.2,0.5
			l-0.3-0.1c0-0.1-0.1-0.1-0.2-0.1s-0.2,0.1-0.2,0.2s0.1,0.2,0.2,0.2s0.1,0,0.2-0.1c0.3,0.4,0.1,0.7,0.1,0.7l-0.3,0.2
			c-0.2,0.1,0.1-0.3,0-0.5c0-0.1-0.3-0.1-0.3-0.3c0,0,0-0.3-0.1-0.4c-0.2-0.3-1-0.3-0.9-0.2c0,0,0.2,0.1,0.2,0.2
			c0.1,0.1-0.1,0.4,0,0.4c0,0,0.2,0.1,0.2,0.2c0.1,0.1,0,0.4,0,0.4s0.1,0.1,0.2,0.2c0,0.1,0,0.3-0.1,0.3c-0.4,0.1-0.8,0.4-0.8,0.6
			s0.2,0.4,0.2,0.4l0.2,0.3c0-0.4,0-1,0.2-1.1l0.3-0.1c0,0,0.3,0.2,0.5,0.3c0.2,0.1,0.4,0.3,0.7,0.2c0,0,0.2-0.1,0.3-0.1
			c0.1,0,0.3,0.1,0.2,0.1c0,0-0.3-0.3-0.2-0.5c0-0.1,0.3-0.1,0.2-0.3c0,0-0.3-0.1-0.3-0.3c0.3-0.1,0.4,0,0.6,0.1
			c-0.1,0.1-0.1,0.1-0.1,0.2s0.1,0.1,0.2,0.1s0.2-0.1,0.2-0.2s-0.1-0.2-0.2-0.3c0,0-0.4-0.2-0.4-0.3c0.3-0.1,0.6-0.2,0.8-0.5
			c0.1-0.1,0.1-0.3,0.1-0.4c0.2-0.4,0.1-0.6,0.2-0.9L31.4,112.3z M28.6,115.3c0-0.1-0.1-0.2-0.2-0.2s-0.2,0.1-0.2,0.2
			s0.1,0.2,0.2,0.2C28.5,115.4,28.6,115.4,28.6,115.3z M30.9,114.7L30.9,114.7c-0.1,0-0.2,0.1-0.2,0.2s0.1,0.2,0.2,0.2
			s0.2-0.1,0.2-0.2C31.1,114.8,31,114.7,30.9,114.7z M27.9,128.5c0,0,0.4-0.5,0.6-0.3c0.2,0.1,0.1,0.5,0.2,0.5s0.4-0.7,0.6-0.7
			s0.2,0.5,0.3,0.5c0.2-0.2,0.4-0.9,0.4-0.9c0.1-0.1,0.5,0.1,0.7,0.1c0.3-0.1,0.4-0.6,0.4-0.6c-0.2,0-0.4,0-0.5-0.2
			c-0.1-0.3,0.5-0.6,0.6-0.9c0.2-0.4,0.4-1.7,0.2-1.3c0,0-0.1,0.3-0.2,0.3l-0.3-0.4c-0.1-0.2,0,0.7-0.1,0.9
			c-0.1,0.3-0.7,0.4-0.7-0.1c0-0.2,0.5-0.5,0.5-0.5l-0.4-0.1c-0.3-0.1-0.7,0.6-1,0.7c-0.1,0-0.2,0-0.2,0c-0.1,0-0.3-0.2-0.4-0.1
			c0,0,0.1,0.1,0.2,0.2c0.1,0,0,0.1,0,0.1c0.1,0.1,0.2,0,0.3,0c0.1,0,0.2,0.1,0.2,0.2s-0.4,0-0.4,0l-0.4,0.1c-0.1,0,0.2,0.1,0.3,0.3
			c0,0-0.7,0.3-0.7,0.4c0,0.2,0.4,0.1,0.3,0.2C27.8,127,27.9,127.9,27.9,128.5z M28.5,124.7c0,0.1,0,0.1,0.1,0.1s0.1,0,0.1-0.1
			s0-0.1-0.1-0.1S28.5,124.7,28.5,124.7z M28.7,124.5c0.1,0,0.1,0,0.1-0.1s0-0.1-0.1-0.1s-0.1,0-0.1,0.1
			C28.6,124.4,28.6,124.5,28.7,124.5z M28.7,124.2c0.1,0,0.1,0,0.1-0.1s0-0.1-0.1-0.1s-0.1,0-0.1,0.1
			C28.6,124.1,28.6,124.2,28.7,124.2z M29,125c0.1,0,0.1,0,0.1-0.1s0-0.1-0.1-0.1s-0.1,0-0.1,0.1S28.9,125,29,125z M28.9,124.6
			c0,0.1,0,0.1,0.1,0.1s0.1,0,0.1-0.1s0-0.1-0.1-0.1S28.9,124.5,28.9,124.6z M29,124.1c-0.1,0-0.1,0-0.1,0.1s0,0.1,0.1,0.1
			s0.1,0,0.1-0.1L29,124.1z M29.2,124.7c0,0.1,0,0.1,0.1,0.1s0.1,0,0.1-0.1s0-0.1-0.1-0.1S29.2,124.6,29.2,124.7z M29.4,124.3
			c0-0.1,0-0.1-0.1-0.1s-0.1,0-0.1,0.1s0,0.1,0.1,0.1S29.4,124.4,29.4,124.3z M29.7,124.5c0-0.1,0-0.1-0.1-0.1s-0.1,0-0.1,0.1
			s0,0.1,0.1,0.1S29.7,124.5,29.7,124.5z M30.7,126.4c0,0-0.1,0.2,0,0.3c0.1,0.1,0.3,0,0.3,0C30.9,126.7,30.8,126.6,30.7,126.4z
			 M28.6,123.3c0-0.1-0.1-0.2-0.2-0.2s-0.2,0.1-0.2,0.2s0.1,0.2,0.2,0.2C28.5,123.4,28.6,123.3,28.6,123.3z M31.4,120.3
			c0-0.1-0.1,0.2-0.2,0.2s-0.1-0.2-0.1-0.2l-0.1-0.6c0-0.1-0.4,0.5-0.6,0.5c-0.1,0-0.2-0.1-0.2-0.1s-0.4,0.4-0.4,0.6
			c0,0.1,0,0.4,0,0.4l0.1,0.1c0,0.1-0.3,0.4-0.2,0.5l0.2,0.5l-0.3-0.1c0-0.1-0.1-0.1-0.2-0.1s-0.2,0.1-0.2,0.2s0.1,0.2,0.2,0.2
			s0.1,0,0.2-0.1c0.3,0.4,0.1,0.7,0.1,0.7l-0.3,0.2c-0.2,0.1,0.1-0.3,0-0.5c0-0.1-0.3-0.1-0.3-0.3c0,0,0-0.3-0.1-0.4
			c-0.2-0.3-1-0.3-0.9-0.2c0,0,0.2,0.1,0.2,0.2c0.1,0.1-0.1,0.4,0,0.4c0,0,0.2,0.1,0.2,0.2c0.1,0.1,0,0.4,0,0.4s0.1,0.1,0.2,0.2
			c0,0.1,0,0.3-0.1,0.3c-0.4,0.1-0.8,0.4-0.8,0.6s0.2,0.4,0.2,0.4l0.2,0.3c0-0.4,0-1,0.2-1.1l0.3-0.1c0,0,0.3,0.2,0.5,0.3
			c0.2,0.1,0.4,0.3,0.7,0.2c0,0,0.2-0.1,0.3-0.1c0.1,0,0.3,0.1,0.2,0.1c0,0-0.3-0.3-0.2-0.5c0-0.1,0.3-0.1,0.2-0.3
			c0,0-0.3-0.1-0.3-0.3c0.3-0.1,0.4,0,0.6,0.1c-0.1,0.1-0.1,0.1-0.1,0.2s0.1,0.1,0.2,0.1s0.2-0.1,0.2-0.2s-0.1-0.2-0.2-0.3
			c0,0-0.4-0.2-0.4-0.3c0.3-0.1,0.6-0.2,0.8-0.5c0.1-0.1,0.1-0.3,0.1-0.4c0.2-0.4,0.1-0.6,0.2-0.9L31.4,120.3z M30.9,122.7
			L30.9,122.7c-0.1,0-0.2,0.1-0.2,0.2s0.1,0.2,0.2,0.2s0.2-0.1,0.2-0.2C31.1,122.8,31,122.7,30.9,122.7z M31.3,132.6
			c0,0-0.1,0.3-0.2,0.3l-0.3-0.4c-0.1-0.2,0,0.7-0.1,0.9c-0.1,0.3-0.7,0.4-0.7-0.1c0-0.2,0.5-0.5,0.5-0.5l-0.4-0.1
			c-0.3-0.1-0.7,0.6-1,0.7c-0.1,0-0.2,0-0.2,0c-0.1,0-0.3-0.2-0.4-0.1c0,0,0.1,0.1,0.2,0.2s0,0.1,0,0.1c0.1,0.1,0.2,0,0.3,0
			c0.1,0,0.2,0.1,0.2,0.2c0,0.1-0.4,0-0.4,0l-0.4,0.1c-0.1,0,0.2,0.1,0.3,0.3c0,0-0.7,0.3-0.7,0.4c0,0.2,0.4,0.1,0.3,0.2
			c-0.4,0.4-0.3,1.4-0.4,1.9c0,0,0.4-0.5,0.6-0.3c0.2,0.1,0.1,0.5,0.2,0.5s0.4-0.7,0.6-0.7s0.2,0.5,0.3,0.5c0.2-0.2,0.4-0.9,0.4-0.9
			c0.1-0.1,0.5,0.1,0.7,0.1c0.3-0.1,0.4-0.6,0.4-0.6c-0.2,0.1-0.4,0-0.5-0.2c-0.1-0.3,0.5-0.6,0.6-0.9
			C31.3,133.4,31.5,132.2,31.3,132.6z M28.5,132.7c0,0.1,0,0.1,0.1,0.1s0.1,0,0.1-0.1s0-0.1-0.1-0.1
			C28.6,132.6,28.5,132.7,28.5,132.7z M28.7,132.5c0.1,0,0.1,0,0.1-0.1s0-0.1-0.1-0.1s-0.1,0-0.1,0.1
			C28.6,132.4,28.6,132.5,28.7,132.5z M28.7,132.2c0.1,0,0.1,0,0.1-0.1s0-0.1-0.1-0.1s-0.1,0-0.1,0.1S28.6,132.2,28.7,132.2z
			 M29,133c0.1,0,0.1,0,0.1-0.1s0-0.1-0.1-0.1s-0.1,0-0.1,0.1S28.9,133,29,133z M28.9,132.6c0,0.1,0,0.1,0.1,0.1s0.1,0,0.1-0.1
			s0-0.1-0.1-0.1S28.9,132.5,28.9,132.6z M29,132.1c-0.1,0-0.1,0-0.1,0.1s0,0.1,0.1,0.1s0.1,0,0.1-0.1C29.1,132.2,29,132.1,29,132.1
			z M29.2,132.7c0,0.1,0,0.1,0.1,0.1s0.1,0,0.1-0.1s0-0.1-0.1-0.1C29.2,132.6,29.2,132.7,29.2,132.7z M29.4,132.3
			c0-0.1,0-0.1-0.1-0.1s-0.1,0-0.1,0.1s0,0.1,0.1,0.1C29.4,132.4,29.4,132.4,29.4,132.3z M29.7,132.5c0-0.1,0-0.1-0.1-0.1
			s-0.1,0-0.1,0.1s0,0.1,0.1,0.1S29.7,132.5,29.7,132.5z M30.7,134.5c0,0-0.1,0.2,0,0.3s0.3,0,0.3,0
			C30.9,134.7,30.8,134.6,30.7,134.5z M31.4,128.3c0-0.1-0.1,0.2-0.2,0.2s-0.1-0.2-0.1-0.2l-0.1-0.6c0-0.1-0.4,0.5-0.6,0.5
			c-0.1,0-0.2-0.1-0.2-0.1s-0.4,0.4-0.4,0.6c0,0.1,0,0.4,0,0.4l0.1,0.1c0,0.1-0.3,0.4-0.2,0.5l0.2,0.4l-0.3-0.1
			c0-0.1-0.1-0.1-0.2-0.1s-0.2,0.1-0.2,0.2s0.1,0.2,0.2,0.2s0.1,0,0.2-0.1c0.3,0.4,0.1,0.7,0.1,0.7l-0.3,0.2c-0.2,0.1,0.1-0.3,0-0.5
			c0-0.1-0.3-0.1-0.3-0.3c0,0,0-0.3-0.1-0.4c-0.2-0.3-1-0.3-0.9-0.2c0,0,0.2,0.1,0.2,0.2c0.1,0.1-0.1,0.4,0,0.4c0,0,0.2,0.1,0.2,0.2
			c0.1,0.1,0,0.4,0,0.4s0.1,0.1,0.2,0.2c0,0.1,0,0.3-0.1,0.3c-0.4,0.1-0.8,0.4-0.8,0.6c0,0.2,0.2,0.4,0.2,0.4l0.2,0.3
			c0-0.4,0-1,0.2-1.1l0.3-0.1c0,0,0.3,0.2,0.5,0.3s0.4,0.3,0.7,0.2c0,0,0.2-0.1,0.3-0.1c0.1,0,0.3,0.1,0.2,0.1c0,0-0.3-0.3-0.2-0.5
			c0-0.1,0.3-0.1,0.2-0.3c0,0-0.3-0.1-0.3-0.3c0.3-0.1,0.4,0,0.6,0.1c-0.1,0.1-0.1,0.1-0.1,0.2c0,0.1,0.1,0.1,0.2,0.1
			s0.2-0.1,0.2-0.2c0-0.1-0.1-0.2-0.2-0.3c0,0-0.4-0.2-0.4-0.3c0.3-0.1,0.6-0.2,0.8-0.5c0.1-0.1,0.1-0.3,0.1-0.4
			c0.2-0.4,0.1-0.6,0.2-0.9L31.4,128.3z M28.6,131.3c0-0.1-0.1-0.2-0.2-0.2s-0.2,0.1-0.2,0.2c0,0.1,0.1,0.2,0.2,0.2
			C28.5,131.4,28.6,131.4,28.6,131.3z M30.9,130.7L30.9,130.7c-0.1,0-0.2,0.1-0.2,0.2c0,0.1,0.1,0.2,0.2,0.2s0.2-0.1,0.2-0.2
			S31,130.7,30.9,130.7z M28.5,144c0.2,0.1,0.1,0.5,0.2,0.5s0.4-0.7,0.6-0.7s0.2,0.5,0.3,0.5c0.2-0.2,0.4-0.9,0.4-0.9
			c0.1-0.1,0.5,0.1,0.7,0.1c0.3-0.1,0.4-0.6,0.4-0.6c-0.2,0-0.4,0-0.5-0.2c-0.1-0.3,0.5-0.6,0.6-0.9c0.2-0.4,0.4-1.7,0.2-1.3
			c0,0-0.1,0.3-0.2,0.3l-0.3-0.4c-0.1-0.2,0,0.7-0.1,0.9c-0.1,0.3-0.7,0.4-0.7-0.1c0-0.2,0.5-0.5,0.5-0.5l-0.4-0.1
			c-0.3-0.1-0.7,0.6-1,0.7c-0.1,0-0.2,0-0.2,0c-0.1,0-0.3-0.2-0.4-0.1c0,0,0.1,0.1,0.2,0.2c0.1,0,0,0.1,0,0.1c0.1,0.1,0.2,0,0.3,0
			c0.1,0,0.2,0.1,0.2,0.2c0,0.1-0.4,0-0.4,0l-0.4,0.1c-0.1,0,0.2,0.1,0.3,0.3c0,0-0.7,0.3-0.7,0.4c0,0.2,0.4,0.1,0.3,0.2
			c-0.4,0.4-0.3,1.4-0.4,1.9C27.9,144.3,28.3,143.9,28.5,144z M28.5,140.6c0,0.1,0,0.1,0.1,0.1s0.1,0,0.1-0.1s0-0.1-0.1-0.1
			S28.5,140.5,28.5,140.6z M28.8,140.2c0-0.1,0-0.1-0.1-0.1s-0.1,0-0.1,0.1s0,0.1,0.1,0.1S28.8,140.3,28.8,140.2z M28.7,139.8
			c-0.1,0-0.1,0-0.1,0.1s0,0.1,0.1,0.1s0.1,0,0.1-0.1C28.8,139.9,28.7,139.8,28.7,139.8z M29,140.7c-0.1,0-0.1,0-0.1,0.1
			s0,0.1,0.1,0.1s0.1,0,0.1-0.1S29,140.7,29,140.7z M29,140.3c-0.1,0-0.1,0-0.1,0.1s0,0.1,0.1,0.1s0.1,0,0.1-0.1
			C29.1,140.4,29,140.3,29,140.3z M29,140.2c0.1,0,0.1,0,0.1-0.1s0-0.1-0.1-0.1s-0.1,0-0.1,0.1C28.9,140.1,28.9,140.2,29,140.2z
			 M29.2,140.6c0,0.1,0,0.1,0.1,0.1s0.1,0,0.1-0.1s0-0.1-0.1-0.1C29.2,140.4,29.2,140.5,29.2,140.6z M29.4,140.2
			c0-0.1,0-0.1-0.1-0.1s-0.1,0-0.1,0.1s0,0.1,0.1,0.1S29.4,140.2,29.4,140.2z M29.5,140.3c0,0.1,0,0.1,0.1,0.1s0.1,0,0.1-0.1
			s0-0.1-0.1-0.1S29.5,140.3,29.5,140.3z M30.7,142.3c0,0-0.1,0.2,0,0.3s0.3,0,0.3,0C30.9,142.6,30.8,142.5,30.7,142.3z M28.6,139.1
			c0-0.1-0.1-0.2-0.2-0.2s-0.2,0.1-0.2,0.2c0,0.1,0.1,0.2,0.2,0.2S28.6,139.2,28.6,139.1z M28.3,140.8c0-0.4,0-1,0.2-1.1l0.3-0.1
			c0,0,0.3,0.2,0.5,0.3s0.4,0.3,0.7,0.2c0,0,0.2-0.1,0.3-0.1c0.1,0,0.3,0.1,0.2,0.1c0,0-0.3-0.3-0.2-0.5c0-0.1,0.3-0.1,0.2-0.3
			c0,0-0.3-0.1-0.3-0.3c0.3-0.1,0.4,0,0.6,0.1c-0.1,0.1-0.1,0.1-0.1,0.2c0,0.1,0.1,0.1,0.2,0.1s0.2-0.1,0.2-0.2
			c0-0.1-0.1-0.2-0.2-0.3c0,0-0.4-0.2-0.4-0.3c0.3-0.1,0.6-0.2,0.8-0.5c0.1-0.1,0.1-0.3,0.1-0.4c0.2-0.4,0.1-0.6,0.2-0.9v-0.7
			c0-0.1-0.1,0.2-0.2,0.2s-0.1-0.2-0.1-0.2l-0.1-0.6c0-0.1-0.4,0.5-0.6,0.5c-0.1,0-0.2-0.1-0.2-0.1s-0.4,0.4-0.4,0.6
			c0,0.1,0,0.4,0,0.4l0.1,0.1c0,0.1-0.3,0.4-0.2,0.5l0.2,0.5l-0.3-0.1c0-0.1-0.1-0.1-0.2-0.1s-0.2,0.1-0.2,0.2
			c0,0.1,0.1,0.2,0.2,0.2s0.1,0,0.2-0.1c0.3,0.4,0.1,0.7,0.1,0.7l-0.3,0.2c-0.2,0.1,0.1-0.3,0-0.5c0-0.1-0.3-0.1-0.3-0.3
			c0,0,0-0.3-0.1-0.4c-0.2-0.2-1-0.3-0.9-0.2c0,0,0.2,0.1,0.2,0.2c0.1,0.1-0.1,0.4,0,0.4c0,0,0.2,0.1,0.2,0.2c0.1,0.1,0,0.4,0,0.4
			s0.1,0.1,0.2,0.2c0,0.1,0,0.3-0.1,0.3c-0.4,0.1-0.8,0.4-0.8,0.6c0,0.2,0.2,0.4,0.2,0.4L28.3,140.8z M30.9,138.5
			c-0.1,0-0.2,0.1-0.2,0.2c0,0.1,0.1,0.2,0.2,0.2s0.2-0.1,0.2-0.2S31,138.5,30.9,138.5L30.9,138.5z M56,116.6
			c-0.4,0.2-0.7,0.4-1,0.7c-1.9,1.4-3.1,3.6-3.4,6l-0.7,5.5h0.3c0.6,0,1.2,0.4,1.3,1.1c0.1,0.7-0.3,1.4-1.1,1.6l-0.8,0.2
			c-0.3-0.5-0.6-1-0.8-1.6c-0.8-1.9-1.4-3.9-1.4-6c0-2.3,0.3-4.5,0.3-6.8c0-1-0.4-2-1-2.7c-0.6,0.7-1,1.7-1,2.7
			c0,2.3,0.3,4.5,0.3,6.8c0.1,2.1-0.6,4.1-1.3,6c-0.3,0.5-0.5,1.1-0.8,1.6l-0.8-0.2c-0.7-0.1-1.2-0.9-1.1-1.6
			c0.1-0.6,0.7-1.1,1.3-1.1h0.3l-0.7-5.5c-0.2-2.5-1.5-4.6-3.4-6c-0.3-0.2-0.7-0.5-1-0.7v19.6H44c0.3,1.8,1.4,3.4,2.8,4.5
			c0.3,0.2,0.6,0.5,0.8,0.9c0.2-0.4,0.5-0.7,0.8-0.9c1.4-1.1,2.4-2.7,2.8-4.5H56V116.6L56,116.6z M41.1,119.4c0.9,1,1.5,2.3,1.6,3.7
			l0.5,4.6c-0.7,0.3-1.2,1-1.4,1.7H41L41.1,119.4L41.1,119.4z M44.2,134.8h-3v-4.1H42c0.2,0.9,1,1.7,1.9,1.9l0.7,0.1
			C44.3,133.5,44.2,134.1,44.2,134.8z M47.2,139c-0.7-0.8-1.3-1.8-1.5-2.8h1.5V139z M45.5,134.8c0-0.6,0.1-1.1,0.2-1.7
			c0.8,0.1,1.5,0.8,1.5,1.7H45.5z M47.9,132.9c-0.4-0.5-0.9-0.8-1.5-1c0.6-1.1,1.1-2.2,1.5-3.4c0.4,1.2,0.9,2.3,1.5,3.4
			C48.8,132.1,48.3,132.5,47.9,132.9z M48.6,139v-2.8h1.5C49.9,137.3,49.3,138.3,48.6,139z M48.6,134.8c0-0.9,0.6-1.6,1.5-1.7
			c0.2,0.5,0.2,1.1,0.2,1.7H48.6z M54.7,134.8h-3c0-0.7-0.1-1.4-0.3-2l0.7-0.1c0.9-0.3,1.7-1,1.9-1.9h0.8L54.7,134.8L54.7,134.8z
			 M54.7,129.4h-0.8c-0.2-0.8-0.7-1.4-1.4-1.7l0.5-4.6c0.2-1.4,0.8-2.7,1.6-3.7L54.7,129.4L54.7,129.4z"/>
	</g>
</g>
</svg>
