<?xml version='1.0' encoding='utf-8'?>
<svg xmlns="http://www.w3.org/2000/svg" width="210mm" height="297mm" clip-rule="evenodd" fill-rule="evenodd" image-rendering="optimizeQuality" shape-rendering="geometricPrecision" text-rendering="geometricPrecision" version="1.1" viewBox="0 0 21000 29700">
 <defs>
  <style type="text/css">
   
    .str1 {stroke:#2B2A29;stroke-width:7.62}
    .str2 {stroke:#434242;stroke-width:7.62}
    .str0 {stroke:#EBECEC;stroke-width:52.91}
    .fil2 {fill:none}
    .fil4 {fill:#434242}
    .fil0 {fill:#B2B3B3}
    .fil1 {fill:#EBECEC}
    .fil5 {fill:#FEFEFE}
    .fil3 {fill:#EBECEC;fill-rule:nonzero}
   
  </style>
 </defs>
   <path class="fil0" d="m2264 6589l17015 3441c935 189 1734 780 1734 1734v9651c0 953-781 1734-1734 1734h-17532c-954 0-1734-780-1734-1734v-12904c0-954 1316-2111 2251-1922z"/>
   <polygon class="fil1" points="8621 18074 13218 18074 12628 18457 9231 18457"/>
   <polygon class="fil1" points="16336 18074 20934 18074 20343 18457 16947 18457"/>
   <polyline class="fil2 str0" points="9234 18086 10919 14447 12605 18086"/>
   <polyline class="fil2 str0" points="16949 18086 18635 14447 20321 18086"/>
   <rect class="fil1" x="14558" y="11693" width="421" height="9425" rx="326" ry="326"/>
   <rect class="fil1" transform="matrix(4.313e-14 .81428 -1.6285 2.1566e-14 19482 14203)" width="259" height="5788" rx="200" ry="200"/>
   <rect class="fil1" transform="matrix(5.961e-15 2.1467 -.22508 5.6855e-14 11571 14030)" width="259" height="5788" rx="200" ry="200"/>
   <rect class="fil1" transform="matrix(5.961e-15 2.1467 -.22508 5.6855e-14 19286 14030)" width="259" height="5788" rx="200" ry="200"/>
   <circle class="fil1" cx="14769" cy="14308" r="460"/>
   <circle class="fil1" cx="14769" cy="11555" r="646"/>
   <path class="fil1" d="m13744 21462h2050c155 0 282 127 282 282s-127 282-282 282h-2050c-156 0-282-127-282-282s126-282 282-282z"/>
   <path class="fil1" d="m13744 21462h2050c155 0 282-127 282-282s-127-282-282-282h-2050c-156 0-282 127-282 282s126 282 282 282z"/>
   <path class="fil1" d="m13792 21462h1954c147 0 268 121 268 269s-121 268-268 268h-1954c-147 0-268-120-268-268s121-269 268-269z"/>
   <path class="fil1" d="m13792 21446h1954c147 0 268-121 268-269 0-147-121-268-268-268h-1954c-147 0-268 121-268 268 0 148 121 269 268 269z"/>
   <path class="fil1" d="m9750 22455c445-33 591-217 627-456h8784c79 239 241 423 627 456v694h-10038v-694z"/>
   <path class="fil3" d="m4307 8966l-1191 138c-39-119-93-204-161-255-69-50-161-76-276-76-137 0-237 27-301 81s-96 123-96 206c0 70 29 133 87 187 103 95 346 212 727 351 544 199 923 395 1136 584 212 194 317 446 317 757 0 182-41 349-121 500-82 149-213 302-393 458 109 120 191 241 244 363 52 122 79 262 79 419 0 215-56 417-167 605-110 188-285 338-523 452-239 112-559 168-961 168-257 0-485-22-686-65-199-44-364-103-494-181-129-76-236-164-319-265-84-101-147-197-189-290-42-92-79-216-112-374l1172-123c74 154 159 266 253 338 96 71 212 107 350 107 143 0 250-33 321-99s107-149 107-246c0-83-43-167-127-252-118-117-434-277-949-481-513-204-856-407-1028-608s-258-414-258-640c0-180 47-343 139-494 93-150 251-304 474-462-105-116-182-230-230-342-48-111-71-237-71-376 0-178 43-341 126-489 84-148 192-266 327-355s272-154 410-193c189-54 430-81 726-81 395 0 691 36 886 107 196 72 356 183 480 331 124 150 222 348 292 595zm-2373 1226c-107 143-161 259-161 346 0 53 18 100 53 140 57 66 201 151 428 255l1193 537c94-141 140-253 140-338 0-69-27-129-83-184-81-79-320-200-717-366-396-164-681-295-853-390z"/>
    <polygon class="fil4 str1" points="7124 16542 6665 17337 11967 20615 17457 23567 17916 22773 12614 19494"/>
    <path class="fil5 str2" d="m7227 16478c-189 401-314 616-566 980-51 74-18 179 60 224s173 14 224-60c253-364 377-579 566-980 39-81 18-179-60-224s-186-22-224 60z"/>
    <path class="fil5 str1" d="m17760 22559c-189 401-313 616-566 980-51 74-18 179 60 224 79 45 173 14 225-60 252-364 376-579 565-979 39-82 18-180-60-225s-186-21-224 60z"/>
    <path class="fil4 str2" d="m5432 12507c-63 109-140 211-189 328-51 119-43 262-108 375-65 112-193 177-271 281-76 100-126 218-190 327-63 110-126 219-189 328-63 110-126 219-189 328-63 110-126 219-190 328-63 110-126 219-189 328-63 110-126 219-189 328-63 110-126 219-190 328-63 110-126 219-189 328-63 110-126 219-189 328-63 110-140 212-190 328-50 120-43 262-108 375s-205 168-270 281l-151 260c-27 48-30 75 15 109 1223 933 1608 1162 3017 1746 84 35 100 14 154-68 47-71 91-144 125-223 50-119 43-262 108-374 65-113 192-178 270-281 76-101 127-219 190-328 63-110 126-219 189-328 63-110 126-219 189-328 63-110 127-219 190-328 63-110 126-219 189-328 63-110 126-219 189-328 64-110 127-219 190-328 63-110 126-219 189-328s126-219 189-328c64-109 141-212 190-328 51-120 43-262 108-375s206-168 271-281l189-328c-1501-627-1867-838-3160-1824z"/>
    <path class="fil5 str2" d="m5054 13174c-37 65-9 140 50 186 1206 932 1503 1103 2913 1682 69 28 149 15 186-50s19-158-50-186c-1410-579-1707-750-2913-1682-59-46-149-15-186 50z"/>
    <path class="fil5 str2" d="m2782 17109c-38 65-9 141 50 186 1206 932 1503 1104 2913 1682 69 29 148 15 186-50 37-64 19-157-50-186-1410-578-1707-750-2913-1681-59-46-149-15-186 49z"/>
    <ellipse class="fil5 str2" transform="matrix(-.36555 .63315 .82461 .47609 7006.4 13428)" rx="265" ry="1923"/>
    <ellipse class="fil5 str1" cx="3583" cy="22604" rx="2256" ry="333"/>
    <path class="fil4 str1" d="m1412 22564c1608 287 2726 260 4334 0 92-15 138 82 170 170 82 227 141 422 141 673 0 161-22 570-226 607-1660 309-2844 344-4504 0-203-42-227-446-227-607 0-251 60-446 142-673 31-88 78-186 170-170z"/>
</svg>